<svg width="761" height="737" viewBox="0 0 761 737" fill="none" xmlns="http://www.w3.org/2000/svg">
<path d="M271.929 56.4038C232.521 63.241 189.495 97.4268 172.606 136.439C160.542 162.983 160.945 212.05 173.41 238.996C184.267 263.127 205.982 287.661 229.304 302.542L246.998 313.803L236.14 318.227C230.109 320.238 223.273 322.249 221.262 322.249C219.251 322.249 204.373 328.684 188.289 336.727C149.283 356.434 103.844 402.284 85.3467 440.491C60.0134 492.775 53.5795 536.614 69.6642 551.495C78.1086 559.136 82.934 559.538 218.045 559.538H357.177L359.59 575.224C362.003 594.931 372.056 610.214 390.553 621.877C402.214 629.519 406.236 634.747 407.844 646.813C412.267 673.357 438.003 692.26 470.172 692.26C483.442 692.26 491.886 694.271 495.505 698.695C515.611 722.826 569.897 722.021 584.775 697.488C586.786 694.271 596.035 692.26 610.109 692.26C645.093 692.26 668.818 674.966 674.447 645.204C676.458 635.149 680.881 628.714 691.738 621.877C700.183 617.051 710.236 607.801 714.257 601.366C722.701 588.496 724.712 550.288 717.072 542.646C711.04 536.614 711.04 522.135 717.072 516.102C724.712 508.461 723.103 470.253 715.061 457.383C711.04 451.753 700.987 442.502 692.543 436.872C680.077 429.23 676.458 424.002 674.045 411.534C672.437 401.077 666.807 391.022 657.558 382.174C645.897 370.913 640.669 368.902 619.357 367.293C600.056 365.685 590.405 362.869 577.537 353.619C551.802 335.521 513.199 338.738 495.505 360.054C486.659 370.913 452.479 368.5 435.992 356.032C417.495 341.956 379.294 323.455 361.199 320.238C341.897 316.618 339.484 311.792 353.96 306.966C368.437 301.737 399.4 273.986 410.659 255.888C415.082 249.051 421.516 231.757 425.135 218.083C432.775 188.321 428.754 156.146 413.876 126.786C402.617 104.264 372.056 74.9044 349.537 65.2519C329.029 56.4038 294.447 52.382 271.929 56.4038ZM330.638 83.7525C372.056 97.0246 406.638 144.483 406.638 187.516C406.638 244.627 353.156 298.118 296.056 298.118C258.257 298.118 214.828 271.171 196.733 236.181C185.072 214.061 184.267 162.179 195.125 141.265C222.468 88.9809 275.95 66.0563 330.638 83.7525ZM372.458 347.989C388.14 354.424 406.638 364.076 413.876 369.304L427.146 379.359L418.701 388.609C414.278 393.436 409.05 404.295 407.844 412.338C406.236 424.002 402.214 429.632 390.553 436.872C362.807 454.568 351.548 486.34 364.013 511.678C376.479 536.614 383.717 535.407 228.098 535.407C138.828 535.407 84.5425 533.798 82.934 531.385C78.9129 524.95 92.9869 474.275 106.257 449.339C131.992 401.077 174.214 364.478 226.892 345.575C257.05 335.119 263.886 334.314 302.087 335.521C337.072 336.727 349.135 338.738 372.458 347.989ZM557.431 367.293C563.061 369.707 567.484 373.326 567.484 374.935C567.484 382.577 593.22 391.425 607.696 389.012C629.008 385.794 649.114 399.468 652.331 419.578C655.146 437.274 660.775 444.915 680.881 457.383C699.378 469.046 704.204 487.949 694.553 507.656C686.511 523.744 686.511 531.787 694.553 549.081C705.41 571.202 699.781 589.702 678.066 602.974C660.775 613.431 655.146 621.475 650.32 644.802C646.701 661.291 631.019 669.737 604.077 669.737C583.971 670.139 579.146 671.748 565.876 683.009C548.183 698.695 536.119 699.499 520.437 686.629C501.537 670.944 491.082 666.922 474.998 669.737C452.881 673.357 433.982 659.683 429.558 637.16C427.146 625.095 422.722 617.453 414.278 611.018C387.738 590.909 382.511 584.474 382.511 570.799C382.913 563.56 385.326 553.103 388.542 547.473C395.781 534.603 395.781 524.146 388.542 509.667C375.675 485.134 380.5 473.068 414.278 447.731C423.125 440.893 427.548 433.654 429.156 422.795C433.177 399.066 446.849 388.207 471.781 389.414C491.886 390.218 501.939 387.403 511.992 377.348C526.468 362.467 540.543 359.652 557.431 367.293Z" fill="black"/>
<path d="M497.516 420.784C451.273 439.687 424.733 479.503 424.733 529.374C424.733 596.137 474.595 645.606 541.347 645.204C608.5 645.204 657.156 596.539 657.156 529.374C657.558 478.297 629.008 436.872 581.96 419.175C552.204 408.316 526.87 408.719 497.516 420.784ZM581.96 444.513C641.474 472.264 653.537 550.288 605.685 596.942C536.521 664.107 424.733 594.126 451.273 500.417C457.706 477.492 485.855 446.926 507.167 440.089C531.696 432.448 559.442 434.056 581.96 444.513Z" fill="black"/>
<path d="M550.193 491.569C530.489 510.874 524.056 514.896 519.23 511.678C507.167 502.83 494.299 499.21 485.05 501.624C472.585 504.841 467.759 510.874 464.542 526.961C462.13 538.625 464.14 541.842 487.865 565.571C524.86 602.572 526.87 602.17 578.341 549.886C623.781 504.037 627.802 494.786 609.706 477.09C592.818 459.796 579.146 463.416 550.193 491.569ZM595.632 495.993C595.632 502.026 531.294 567.582 525.664 567.582C519.632 567.582 487.061 534.603 487.061 528.57C487.061 520.124 495.103 522.537 509.982 535.407L523.654 547.473L534.511 539.831C540.542 535.407 554.214 522.939 565.474 511.678C584.775 491.569 595.632 485.938 595.632 495.993Z" fill="black"/>
</svg>
