<svg width="37" height="37" viewBox="0 0 37 37" fill="none" xmlns="http://www.w3.org/2000/svg">
<g clip-path="url(#clip0_1246_1135)">
<path d="M18.5 37C28.7173 37 37 28.7173 37 18.5C37 8.28273 28.7173 0 18.5 0C8.28273 0 0 8.28273 0 18.5C0 28.7173 8.28273 37 18.5 37Z" fill="white" style="fill:white;fill-opacity:1;"/>
<path d="M25.6 19.6C25.6 23.572 22.972 26.8 19 26.8C15.028 26.8 12.4 23.572 12.4 19.6C13.7258 19.6111 15.0153 20.034 16.0902 20.8101C17.1651 21.5862 17.9722 22.6771 18.4 23.932V18.4H15.4C14.9226 18.4 14.4648 18.2103 14.1272 17.8728C13.7897 17.5352 13.6 17.0774 13.6 16.6V13C13.6 12.874 13.6396 12.7513 13.7133 12.6491C13.7869 12.547 13.8908 12.4706 14.0103 12.4308C14.1298 12.3909 14.2587 12.3897 14.3789 12.4273C14.4991 12.4648 14.6045 12.5392 14.68 12.64L16.516 15.04L18.496 11.44C18.5504 11.3558 18.625 11.2865 18.7131 11.2386C18.8011 11.1906 18.8998 11.1655 19 11.1655C19.1003 11.1655 19.1989 11.1906 19.287 11.2386C19.375 11.2865 19.4496 11.3558 19.504 11.44L21.484 15.04L23.32 12.64C23.3956 12.5392 23.5009 12.4648 23.6211 12.4273C23.7413 12.3897 23.8703 12.3909 23.9898 12.4308C24.1092 12.4706 24.2131 12.547 24.2868 12.6491C24.3604 12.7513 24.4 12.874 24.4 13V16.6C24.4 17.0774 24.2104 17.5352 23.8728 17.8728C23.5353 18.2103 23.0774 18.4 22.6 18.4H19.6V23.932C20.0278 22.6771 20.835 21.5862 21.9099 20.8101C22.9848 20.034 24.2743 19.6111 25.6 19.6Z" fill="black" style="fill:black;fill-opacity:1;"/>
</g>
<defs>
<clipPath id="clip0_1246_1135">
<rect width="37" height="37" fill="white" style="fill:white;fill-opacity:1;"/>
</clipPath>
</defs>
</svg>
