<svg width="213" height="214" viewBox="0 0 213 214" fill="none" xmlns="http://www.w3.org/2000/svg">
<g clip-path="url(#clip0_1246_532)">
<path d="M106.5 211.509C164.219 211.509 211.009 164.719 211.009 107C211.009 49.2807 164.219 2.49023 106.5 2.49023C48.7807 2.49023 1.99023 49.2807 1.99023 107C1.99023 164.719 48.7807 211.509 106.5 211.509Z" stroke="black" style="stroke:black;stroke-opacity:1;" stroke-width="3"/>
<path d="M101.718 81.4961V152.031" stroke="black" style="stroke:black;stroke-opacity:1;" stroke-width="3" stroke-linecap="round"/>
<path d="M148.741 62.3672H64.2578V152.429H148.741V62.3672Z" stroke="black" style="stroke:black;stroke-opacity:1;" stroke-width="3"/>
<path d="M130.41 152.43V81.4961H73.8223V152.43" stroke="black" style="stroke:black;stroke-opacity:1;" stroke-width="3"/>
<path d="M108.492 70.3369H94.1461C92.1653 70.3369 90.5596 71.9427 90.5596 73.9235V73.9235C90.5596 75.9043 92.1653 77.51 94.1461 77.51H108.492C110.473 77.51 112.079 75.9043 112.079 73.9235V73.9235C112.079 71.9427 110.473 70.3369 108.492 70.3369Z" stroke="black" style="stroke:black;stroke-opacity:1;" stroke-width="3"/>
<path d="M135.191 113.375L139.177 108.593L143.162 113.375" stroke="black" style="stroke:black;stroke-opacity:1;" stroke-width="3" stroke-linecap="round"/>
<path d="M135.191 120.549L139.177 125.331L143.162 120.549" stroke="black" style="stroke:black;stroke-opacity:1;" stroke-width="3" stroke-linecap="round"/>
</g>
<defs>
<clipPath id="clip0_1246_532">
<rect width="213" height="213" fill="white" style="fill:white;fill-opacity:1;" transform="translate(0 0.5)"/>
</clipPath>
</defs>
</svg>
