<svg width="214" height="213" viewBox="0 0 214 213" fill="none" xmlns="http://www.w3.org/2000/svg">
<g clip-path="url(#clip0_1246_340)">
<path d="M107 211.037C164.734 211.037 211.537 164.234 211.537 106.5C211.537 48.7656 164.734 1.96289 107 1.96289C49.2656 1.96289 2.46289 48.7656 2.46289 106.5C2.46289 164.234 49.2656 211.037 107 211.037Z" stroke="black" style="stroke:black;stroke-opacity:1;" stroke-width="3"/>
<path d="M90.3506 123.718H98.1795" stroke="black" style="stroke:black;stroke-opacity:1;" stroke-width="3" stroke-linecap="round"/>
<path d="M54.8604 109.104C57.6439 108.408 64.568 106.39 67.9084 101.797C72.0838 96.0561 78.3469 95.5342 90.873 95.5342C100.894 95.5342 106.531 95.5342 108.097 95.5342C110.184 95.5342 115.821 96.8912 121.667 102.319C128.974 109.104 133.67 112.757 145.675 113.28C157.68 113.802 163.421 116.411 163.421 124.762C163.421 133.113 164.464 138.854 156.113 138.854" stroke="black" style="stroke:black;stroke-opacity:1;" stroke-width="3" stroke-linecap="round"/>
<path d="M142.543 112.981V89.7939" stroke="black" style="stroke:black;stroke-opacity:1;" stroke-width="3" stroke-linecap="round"/>
<path d="M125.842 75.1789V86.1393C125.842 86.8351 126.781 88.227 130.54 88.227C134.297 88.227 152.982 88.227 161.855 88.227C162.55 88.4009 163.942 87.6007 163.942 83.0077C163.942 78.4148 163.942 60.5651 163.942 52.2143C163.942 51.3444 163.107 49.709 159.767 50.1266H128.974C127.93 50.1266 125.842 50.8573 125.842 53.7801C125.842 56.7028 125.842 63.3486 125.842 66.3062" stroke="black" style="stroke:black;stroke-opacity:1;" stroke-width="3" stroke-linecap="round"/>
<path d="M147.762 113.231V90.3154" stroke="black" style="stroke:black;stroke-opacity:1;" stroke-width="3" stroke-linecap="round"/>
<path d="M145.153 148.769C151.206 148.769 156.113 143.862 156.113 137.809C156.113 131.756 151.206 126.849 145.153 126.849C139.1 126.849 134.192 131.756 134.192 137.809C134.192 143.862 139.1 148.769 145.153 148.769Z" stroke="black" style="stroke:black;stroke-opacity:1;" stroke-width="3"/>
<path d="M67.9086 148.769C73.9619 148.769 78.869 143.862 78.869 137.809C78.869 131.756 73.9619 126.849 67.9086 126.849C61.8554 126.849 56.9482 131.756 56.9482 137.809C56.9482 143.862 61.8554 148.769 67.9086 148.769Z" stroke="black" style="stroke:black;stroke-opacity:1;" stroke-width="3"/>
<path d="M56.9475 137.809L50.1625 135.2C49.6405 134.852 48.5967 133.53 48.5967 131.025C48.5967 128.519 48.5967 118.498 48.5967 113.801C48.5967 112.409 49.8493 109.522 54.8598 109.104" stroke="black" style="stroke:black;stroke-opacity:1;" stroke-width="3" stroke-linecap="round"/>
<path d="M134.192 138.854H78.8682" stroke="black" style="stroke:black;stroke-opacity:1;" stroke-width="3" stroke-linecap="round"/>
<path d="M145.674 142.507C148.557 142.507 150.894 140.17 150.894 137.288C150.894 134.405 148.557 132.068 145.674 132.068C142.792 132.068 140.455 134.405 140.455 137.288C140.455 140.17 142.792 142.507 145.674 142.507Z" stroke="black" style="stroke:black;stroke-opacity:1;" stroke-width="3"/>
<path d="M67.3862 143.552C70.2687 143.552 72.6054 141.215 72.6054 138.333C72.6054 135.45 70.2687 133.113 67.3862 133.113C64.5037 133.113 62.167 135.45 62.167 138.333C62.167 141.215 64.5037 143.552 67.3862 143.552Z" stroke="black" style="stroke:black;stroke-opacity:1;" stroke-width="3"/>
<path d="M73.1273 117.456H64.2546C62.5149 117.108 59.8704 115.681 63.2107 112.758C67.3861 109.105 67.3863 111.193 72.0836 105.974C76.7809 100.754 85.6536 101.798 91.9166 101.798C96.9271 101.798 104.443 101.798 107.574 101.798C108.792 101.624 112.898 102.528 119.579 107.539C126.259 112.549 130.017 115.542 131.061 116.412L82.5221 116.934" stroke="black" style="stroke:black;stroke-opacity:1;" stroke-width="3" stroke-linecap="round"/>
<path d="M91.3945 101.797V116.748" stroke="black" style="stroke:black;stroke-opacity:1;" stroke-width="3" stroke-linecap="round"/>
<path d="M139.206 76.8115V59.6787H145.313C146.646 59.6787 147.751 59.9213 148.626 60.4064C149.502 60.8917 150.156 61.5554 150.592 62.3975C151.027 63.234 151.244 64.1765 151.244 65.2251C151.244 66.2792 151.024 67.2273 150.583 68.0694C150.149 68.9059 149.49 69.5697 148.609 70.0604C147.734 70.5456 146.633 70.7882 145.305 70.7882H141.105V68.5964H145.071C145.913 68.5964 146.596 68.4515 147.12 68.1614C147.645 67.8659 148.029 67.4643 148.275 66.9567C148.52 66.4493 148.643 65.872 148.643 65.2251C148.643 64.5781 148.52 64.0037 148.275 63.5017C148.029 62.9998 147.642 62.6066 147.112 62.3222C146.587 62.0378 145.896 61.8956 145.038 61.8956H141.792V76.8115H139.206Z" fill="black" style="fill:black;fill-opacity:1;"/>
</g>
<defs>
<clipPath id="clip0_1246_340">
<rect width="213" height="213" fill="white" style="fill:white;fill-opacity:1;" transform="translate(0.5)"/>
</clipPath>
</defs>
</svg>
