<svg width="37" height="37" viewBox="0 0 37 37" fill="none" xmlns="http://www.w3.org/2000/svg">
<g clip-path="url(#clip0_1246_952)">
<path d="M18.5 37C28.7173 37 37 28.7173 37 18.5C37 8.28273 28.7173 0 18.5 0C8.28273 0 0 8.28273 0 18.5C0 28.7173 8.28273 37 18.5 37Z" fill="white" style="fill:white;fill-opacity:1;"/>
<path d="M25.0555 8.99994H12.1666C11.553 8.99994 11.0555 9.4974 11.0555 10.111V24.6666C11.0555 25.2803 11.553 25.7777 12.1666 25.7777H25.0555C25.6692 25.7777 26.1666 25.2803 26.1666 24.6666V10.111C26.1666 9.4974 25.6692 8.99994 25.0555 8.99994Z" fill="black" style="fill:black;fill-opacity:1;"/>
<path d="M24.6111 10.6666H12.5V19.2222H24.6111V10.6666Z" fill="white" style="fill:white;fill-opacity:1;"/>
<path d="M14.2777 24.2221C15.0141 24.2221 15.611 23.6252 15.611 22.8888C15.611 22.1524 15.0141 21.5555 14.2777 21.5555C13.5413 21.5555 12.9444 22.1524 12.9444 22.8888C12.9444 23.6252 13.5413 24.2221 14.2777 24.2221Z" fill="white" style="fill:white;fill-opacity:1;"/>
<path d="M23.0555 24.2221C23.7919 24.2221 24.3888 23.6252 24.3888 22.8888C24.3888 22.1524 23.7919 21.5555 23.0555 21.5555C22.3191 21.5555 21.7222 22.1524 21.7222 22.8888C21.7222 23.6252 22.3191 24.2221 23.0555 24.2221Z" fill="white" style="fill:white;fill-opacity:1;"/>
<path d="M25.9999 12.1667H27.4443C27.7511 12.1667 27.9999 12.4154 27.9999 12.7222V15.3889" stroke="black" style="stroke:black;stroke-opacity:1;" stroke-width="0.95" stroke-miterlimit="16" stroke-linecap="round" stroke-linejoin="round"/>
<path d="M11 12.1667H9.55556C9.24873 12.1667 9 12.4154 9 12.7222V15.3889" stroke="black" style="stroke:black;stroke-opacity:1;" stroke-width="0.95" stroke-miterlimit="16" stroke-linecap="round" stroke-linejoin="round"/>
<path d="M14.5 25.5555H12.5C12.1932 25.5555 11.9445 25.8042 11.9445 26.1111V27.1111C11.9445 27.4179 12.1932 27.6666 12.5 27.6666H14.5C14.8069 27.6666 15.0556 27.4179 15.0556 27.1111V26.1111C15.0556 25.8042 14.8069 25.5555 14.5 25.5555Z" fill="black" style="fill:black;fill-opacity:1;"/>
<path d="M24.6111 25.5555H22.6111C22.3042 25.5555 22.0555 25.8042 22.0555 26.1111V27.1111C22.0555 27.4179 22.3042 27.6666 22.6111 27.6666H24.6111C24.9179 27.6666 25.1666 27.4179 25.1666 27.1111V26.1111C25.1666 25.8042 24.9179 25.5555 24.6111 25.5555Z" fill="black" style="fill:black;fill-opacity:1;"/>
</g>
<defs>
<clipPath id="clip0_1246_952">
<rect width="37" height="37" fill="white" style="fill:white;fill-opacity:1;"/>
</clipPath>
</defs>
</svg>
