<svg width="24" height="26" viewBox="0 0 24 26" fill="none" xmlns="http://www.w3.org/2000/svg">
<g clip-path="url(#clip0_1207_1753)">
<path d="M6.67174 12.6535C6.94996 13.0658 7.54687 13.9319 8.02532 14.4999C8.78937 15.4069 9.25361 15.8977 10.1727 16.6472C10.8666 17.2132 11.964 17.8824 12.4321 18.1602C12.5664 18.2399 12.7351 18.2248 12.855 18.1247L15.0541 16.2874C15.1982 16.167 15.4093 16.1726 15.5468 16.3003L19.2304 19.7208C19.3925 19.8713 19.3886 20.1292 19.2219 20.2747L16.6808 22.4932C15.8371 23.2297 14.6445 23.4423 13.6307 22.9661C5.92792 19.3479 2.76594 13.8631 1.88795 10.6236C1.68381 9.87046 1.91812 9.08804 2.39613 8.47125L4.52088 5.72964C4.65509 5.55647 4.909 5.53583 5.06942 5.68506L8.83572 9.18859C8.98263 9.32525 8.99501 9.55369 8.86373 9.70543L6.69991 12.2065C6.59079 12.3326 6.57845 12.5152 6.67174 12.6535Z" stroke="white" style="stroke:white;stroke-opacity:1;" stroke-width="1.53333" stroke-linecap="round"/>
<path d="M13.3262 10.1382C13.8966 10.0823 15.0239 10.3194 14.9702 11.7152" stroke="white" style="stroke:white;stroke-opacity:1;" stroke-width="1.53333" stroke-linecap="round"/>
<path d="M13.293 7.68902C14.5456 7.47652 17.1179 7.98428 17.3863 11.7153" stroke="white" style="stroke:white;stroke-opacity:1;" stroke-width="1.53333" stroke-linecap="round"/>
<path d="M13.2578 5.20571C15.3381 5.03795 19.5388 6.0982 19.6998 11.6813" stroke="white" style="stroke:white;stroke-opacity:1;" stroke-width="1.53333" stroke-linecap="round"/>
<path d="M13.3262 2.65629C16.1781 2.51089 21.9759 4.10574 22.3517 11.6483" stroke="white" style="stroke:white;stroke-opacity:1;" stroke-width="1.53333" stroke-linecap="round"/>
</g>
<defs>
<clipPath id="clip0_1207_1753">
<rect width="23" height="25.5556" fill="white" style="fill:white;fill-opacity:1;" transform="translate(0.5 0.222656)"/>
</clipPath>
</defs>
</svg>
