<svg width="23" height="26" viewBox="0 0 23 26" fill="none" xmlns="http://www.w3.org/2000/svg">
<path d="M17.1088 19.1338V22.9768C17.1088 23.42 16.7495 23.7792 16.3064 23.7792H3.2302C2.78701 23.7792 2.42773 23.42 2.42773 22.9768V4.4597C2.42773 4.0165 2.78701 3.65723 3.2302 3.65723H12.4637C12.6751 3.65723 12.8779 3.7406 13.0281 3.88924L16.9533 7.77261C17.1122 7.92991 17.1984 8.14642 17.1909 8.36995L17.1088 10.8186" stroke="white" style="stroke:white;stroke-opacity:1;" stroke-width="1.53" stroke-linecap="round"/>
<path d="M12.7012 3.70361V7.49778C12.7012 7.94097 13.0604 8.30025 13.5036 8.30025H17.204" stroke="white" style="stroke:white;stroke-opacity:1;" stroke-width="1.53" stroke-linecap="round"/>
<path d="M5.44727 11.5029H13.7175" stroke="white" style="stroke:white;stroke-opacity:1;" stroke-width="1.53" stroke-linecap="round"/>
<path d="M5.44727 15.2236H11.0946" stroke="white" style="stroke:white;stroke-opacity:1;" stroke-width="1.53" stroke-linecap="round"/>
<path d="M5.44727 19.2236H8.09458" stroke="white" style="stroke:white;stroke-opacity:1;" stroke-width="1.53" stroke-linecap="round"/>
<path d="M12.6305 19.2708L12.874 18.5402L19.9457 11.4685C19.9757 11.4385 20.0243 11.4385 20.0543 11.4685C20.0836 11.4978 20.0843 11.5451 20.0559 11.5753L12.9233 19.1536L12.6305 19.2708ZM12.9639 19.1374L12.9635 19.1376C12.9636 19.1375 12.9637 19.1375 12.9639 19.1374L13.0372 19.3208L13.0372 19.3208L12.9639 19.1374Z" stroke="white" style="stroke:white;stroke-opacity:1;" stroke-width="2" stroke-linecap="round"/>
</svg>
