<svg width="213" height="214" viewBox="0 0 213 214" fill="none" xmlns="http://www.w3.org/2000/svg">
<mask id="mask0_1246_356" style="mask-type:luminance" maskUnits="userSpaceOnUse" x="0" y="0" width="213" height="214">
<path d="M212.512 0.989258H0.489258V213.012H212.512V0.989258Z" fill="white" style="fill:white;fill-opacity:1;"/>
</mask>
<g mask="url(#mask0_1246_356)">
<path d="M106.498 211.441C164.179 211.441 210.94 164.68 210.94 107C210.94 49.3184 164.179 2.55859 106.498 2.55859C48.8174 2.55859 2.05762 49.3184 2.05762 107C2.05762 164.68 48.8174 211.441 106.498 211.441Z" stroke="black" style="stroke:black;stroke-opacity:1;" stroke-width="3"/>
<path d="M142.261 75.6865H137.73C137.726 75.6865 137.721 75.6884 137.718 75.6916C137.715 75.6948 137.713 75.6991 137.713 75.7037V133.502C137.713 135.115 138.355 136.664 139.496 137.805C140.637 138.946 142.185 139.588 143.799 139.588C145.413 139.588 146.962 138.946 148.102 137.805C149.243 136.664 149.885 135.115 149.885 133.502V83.3108C149.885 81.2887 149.082 79.3495 147.652 77.9197C146.221 76.4899 144.283 75.6865 142.261 75.6865Z" stroke="black" style="stroke:black;stroke-opacity:1;" stroke-width="3"/>
<path d="M131.63 133.503V68.08C131.63 67.0809 131.433 66.0917 131.052 65.1688C130.669 64.2458 130.108 63.4072 129.402 62.7008C128.695 61.9943 127.857 61.434 126.934 61.0517C126.011 60.6694 125.022 60.4727 124.023 60.4727H72.2929C70.2752 60.4727 68.3403 61.274 66.9137 62.7008C65.487 64.1275 64.6855 66.0623 64.6855 68.08V135.024C64.6855 137.849 65.8076 140.557 67.805 142.555C69.8022 144.553 72.5111 145.674 75.3358 145.674H140.54C140.568 145.674 140.597 145.669 140.624 145.658C140.65 145.648 140.675 145.631 140.695 145.611C140.716 145.59 140.732 145.566 140.742 145.539C140.753 145.513 140.759 145.485 140.759 145.455C140.759 145.408 140.743 145.362 140.713 145.323C140.684 145.285 140.643 145.259 140.596 145.246C138.023 144.541 135.752 143.009 134.131 140.888C132.511 138.766 131.633 136.172 131.63 133.503ZM76.8572 78.7302C76.8572 77.9231 77.1779 77.1492 77.7485 76.5785C78.3192 76.0079 79.0929 75.6872 79.9002 75.6872H92.0719C92.8791 75.6872 93.6526 76.0079 94.2235 76.5785C94.7944 77.1492 95.1147 77.9231 95.1147 78.7302V90.9019C95.1147 91.7091 94.7944 92.4825 94.2235 93.0534C93.6526 93.6243 92.8791 93.9447 92.0719 93.9447H79.9002C79.0929 93.9447 78.3192 93.6243 77.7485 93.0534C77.1779 92.4825 76.8572 91.7091 76.8572 90.9019V78.7302ZM116.415 130.459H79.9858C78.3483 130.459 76.9428 129.201 76.861 127.563C76.8412 127.152 76.9052 126.741 77.0489 126.355C77.1927 125.969 77.4134 125.616 77.6975 125.318C77.9817 125.019 78.3234 124.783 78.702 124.619C79.0803 124.458 79.4879 124.374 79.9002 124.374H116.33C117.967 124.374 119.373 125.633 119.454 127.271C119.474 127.682 119.41 128.093 119.266 128.48C119.123 128.865 118.902 129.218 118.617 129.516C118.334 129.815 117.992 130.052 117.614 130.214C117.235 130.375 116.827 130.459 116.415 130.459ZM116.415 118.288H79.9858C78.3483 118.288 76.9428 117.03 76.861 115.391C76.8412 114.981 76.9052 114.569 77.0489 114.182C77.1927 113.797 77.4134 113.445 77.6975 113.146C77.9817 112.848 78.3234 112.61 78.702 112.448C79.0803 112.286 79.4879 112.202 79.9002 112.202H116.33C117.967 112.202 119.373 113.461 119.454 115.099C119.474 115.51 119.41 115.922 119.266 116.308C119.123 116.694 118.902 117.046 118.617 117.344C118.334 117.642 117.992 117.88 117.614 118.042C117.235 118.204 116.827 118.288 116.415 118.288ZM116.415 106.117H79.9858C78.3483 106.117 76.9428 104.857 76.861 103.22C76.8412 102.808 76.9052 102.397 77.0489 102.011C77.1927 101.625 77.4134 101.273 77.6975 100.975C77.9817 100.677 78.3234 100.439 78.702 100.277C79.0803 100.115 79.4879 100.031 79.9002 100.031H116.33C117.967 100.031 119.373 101.289 119.454 102.928C119.474 103.338 119.41 103.749 119.266 104.136C119.123 104.521 118.902 104.874 118.617 105.173C118.334 105.471 117.992 105.708 117.614 105.871C117.235 106.033 116.827 106.117 116.415 106.117ZM116.415 93.9447H104.329C102.692 93.9447 101.286 92.686 101.204 91.0479C101.185 90.6372 101.248 90.2257 101.392 89.8394C101.536 89.4538 101.756 89.1012 102.041 88.8028C102.325 88.5044 102.667 88.2673 103.045 88.1047C103.424 87.9429 103.832 87.8589 104.244 87.8589H116.33C117.967 87.8589 119.373 89.1177 119.454 90.7558C119.474 91.1664 119.41 91.578 119.266 91.9643C119.123 92.3499 118.902 92.7025 118.617 93.0009C118.334 93.2993 117.992 93.5364 117.614 93.699C117.235 93.8607 116.827 93.9447 116.415 93.9447ZM116.415 81.773H104.329C102.692 81.773 101.286 80.5143 101.204 78.8766C101.185 78.4652 101.248 78.0539 101.392 77.668C101.536 77.282 101.756 76.9292 102.041 76.631C102.325 76.3328 102.667 76.0954 103.045 75.9332C103.424 75.7709 103.832 75.6872 104.244 75.6872H116.33C117.967 75.6872 119.373 76.9463 119.454 78.5837C119.474 78.9952 119.41 79.4063 119.266 79.7926C119.123 80.1782 118.902 80.5308 118.617 80.8292C118.334 81.1276 117.992 81.3647 117.614 81.5273C117.235 81.689 116.827 81.773 116.415 81.773Z" stroke="black" style="stroke:black;stroke-opacity:1;" stroke-width="3"/>
</g>
</svg>
