<svg width="37" height="37" viewBox="0 0 37 37" fill="none" xmlns="http://www.w3.org/2000/svg">
<g clip-path="url(#clip0_1246_969)">
<path d="M18.5 37C28.7173 37 37 28.7173 37 18.5C37 8.28273 28.7173 0 18.5 0C8.28273 0 0 8.28273 0 18.5C0 28.7173 8.28273 37 18.5 37Z" fill="white" style="fill:white;fill-opacity:1;"/>
<path d="M25.6943 17.894L23.9213 18.8175C23.7707 18.8959 23.6785 19.054 23.6845 19.2237L23.8861 24.9922C23.8917 25.1501 23.9814 25.293 24.1214 25.3667L25.4681 26.0755C25.5347 26.1105 25.6093 26.1279 25.6845 26.126L28.5706 26.052C28.8123 26.0458 29.0039 25.8461 28.9999 25.6044L28.8818 18.2777C28.8779 18.0371 28.6818 17.8442 28.4412 17.8442H25.8979C25.827 17.8442 25.7572 17.8612 25.6943 17.894Z" fill="black" style="fill:black;fill-opacity:1;"/>
<path d="M12.4815 15.9051C14.1122 15.9051 15.4341 14.5832 15.4341 12.9526C15.4341 11.3219 14.1122 10 12.4815 10C10.8508 10 9.52893 11.3219 9.52893 12.9526C9.52893 14.5832 10.8508 15.9051 12.4815 15.9051Z" fill="black" style="fill:black;fill-opacity:1;"/>
<path d="M20.1492 15.9051C21.7798 15.9051 23.1017 14.5832 23.1017 12.9526C23.1017 11.3219 21.7798 10 20.1492 10C18.5185 10 17.1966 11.3219 17.1966 12.9526C17.1966 14.5832 18.5185 15.9051 20.1492 15.9051Z" fill="black" style="fill:black;fill-opacity:1;"/>
<path d="M23.1019 16.522H9.88137C9.3946 16.522 9 16.9166 9 17.4034V26.3052C9 26.792 9.3946 27.1866 9.88137 27.1866H23.1019C23.5886 27.1866 23.9832 26.792 23.9832 26.3052V17.4034C23.9832 16.9166 23.5886 16.522 23.1019 16.522Z" fill="black" style="fill:black;fill-opacity:1;"/>
</g>
<defs>
<clipPath id="clip0_1246_969">
<rect width="37" height="37" fill="white" style="fill:white;fill-opacity:1;"/>
</clipPath>
</defs>
</svg>
