<svg width="214" height="214" viewBox="0 0 214 214" fill="none" xmlns="http://www.w3.org/2000/svg">
<g clip-path="url(#clip0_1246_592)">
<path d="M107 212.021C165.002 212.021 212.021 165.002 212.021 107C212.021 48.9989 165.002 1.97949 107 1.97949C48.9989 1.97949 1.97949 48.9989 1.97949 107C1.97949 165.002 48.9989 212.021 107 212.021Z" stroke="black" style="stroke:black;stroke-opacity:1;" stroke-width="3"/>
<path d="M71.6338 61.248V111.096C73.1582 124.512 85.1706 149.694 121.024 143.109C133.982 138.993 155.964 122.255 140.232 88.2301C132.457 76.797 109.866 59.4188 81.695 81.3702" stroke="black" style="stroke:black;stroke-opacity:1;" stroke-width="3"/>
<path d="M94.0423 49.3564H73.0055C69.9746 49.3564 67.5176 51.8134 67.5176 54.8443C67.5176 57.8752 69.9746 60.3322 73.0055 60.3322H94.0423C97.0732 60.3322 99.5302 57.8752 99.5302 54.8443C99.5302 51.8134 97.0732 49.3564 94.0423 49.3564Z" stroke="black" style="stroke:black;stroke-opacity:1;" stroke-width="3"/>
<path d="M121.94 152.713H95.4149C92.1315 152.713 89.4697 155.375 89.4697 158.658V158.658C89.4697 161.942 92.1315 164.603 95.4149 164.603H121.94C125.223 164.603 127.885 161.942 127.885 158.658V158.658C127.885 155.375 125.223 152.713 121.94 152.713Z" stroke="black" style="stroke:black;stroke-opacity:1;" stroke-width="3"/>
<path d="M120.568 143.109V153.17" stroke="black" style="stroke:black;stroke-opacity:1;" stroke-width="3"/>
<path d="M97.7012 142.651V153.169" stroke="black" style="stroke:black;stroke-opacity:1;" stroke-width="3"/>
<path d="M103.647 79.54C98.5252 86.8572 91.147 88.9914 88.0983 89.1439L82.6104 98.2902C87.0006 106.339 84.4397 113.534 82.6104 116.126L87.1835 124.815C96.33 124.083 102.275 131.217 104.105 134.876H113.251C117.641 127.193 126.666 124.358 130.629 123.9L134.288 116.126C129.532 107.346 132.916 99.6618 135.202 96.9183L130.629 89.6011C120.752 89.2353 114.928 82.7414 113.251 79.54H103.647Z" stroke="black" style="stroke:black;stroke-opacity:1;" stroke-width="3"/>
<path d="M94.958 59.876V73.5956" stroke="black" style="stroke:black;stroke-opacity:1;" stroke-width="3"/>
<path d="M108.46 123.345C117.552 123.345 124.923 115.974 124.923 106.882C124.923 97.789 117.552 90.418 108.46 90.418C99.3671 90.418 91.9961 97.789 91.9961 106.882C91.9961 115.974 99.3671 123.345 108.46 123.345Z" stroke="black" style="stroke:black;stroke-opacity:1;" stroke-width="3"/>
<path d="M108.332 113.613C112.121 113.613 115.192 110.542 115.192 106.753C115.192 102.965 112.121 99.8936 108.332 99.8936C104.544 99.8936 101.473 102.965 101.473 106.753C101.473 110.542 104.544 113.613 108.332 113.613Z" stroke="black" style="stroke:black;stroke-opacity:1;" stroke-width="3"/>
</g>
<defs>
<clipPath id="clip0_1246_592">
<rect width="213" height="213" fill="white" style="fill:white;fill-opacity:1;" transform="translate(0.5 0.5)"/>
</clipPath>
</defs>
</svg>
