<svg width="37" height="37" viewBox="0 0 37 37" fill="none" xmlns="http://www.w3.org/2000/svg">
<g clip-path="url(#clip0_1246_941)">
<mask id="mask0_1246_941" style="mask-type:luminance" maskUnits="userSpaceOnUse" x="0" y="0" width="37" height="37">
<path d="M37 0H0V37H37V0Z" fill="white" style="fill:white;fill-opacity:1;"/>
</mask>
<g mask="url(#mask0_1246_941)">
<path d="M18.5 37C28.7173 37 37 28.7173 37 18.5C37 8.28273 28.7173 0 18.5 0C8.28273 0 0 8.28273 0 18.5C0 28.7173 8.28273 37 18.5 37Z" fill="white" style="fill:white;fill-opacity:1;"/>
<path d="M17.53 22.3647L11.4312 20.4623C11.2781 20.4146 11.1226 20.529 11.1226 20.6893V23.5827C11.1226 23.6174 11.1296 23.6515 11.1463 23.682C11.4812 24.2926 13.068 25.4842 17.0075 25.7159C20.9249 25.9463 23.1487 24.7065 23.8413 23.9985C23.8819 23.957 23.9028 23.9005 23.9028 23.8425V20.6921C23.9028 20.5309 23.7458 20.4165 23.5923 20.4656L17.6735 22.3642C17.6268 22.3791 17.5768 22.3793 17.53 22.3647Z" fill="black" style="fill:black;fill-opacity:1;"/>
<path d="M17.1641 12.015L6.15478 16.1154C5.95322 16.1905 5.94699 16.4733 6.14505 16.5571L17.1546 21.2193C17.2127 21.2439 17.2781 21.2444 17.3366 21.2208L28.8515 16.5586C29.0541 16.4766 29.0479 16.1876 28.8419 16.1143L17.3269 12.0138C17.2741 11.995 17.2166 11.9954 17.1641 12.015Z" fill="black" style="fill:black;fill-opacity:1;"/>
<path d="M26.6805 23.9029C27.1869 23.9029 27.5973 23.4925 27.5973 22.9861C27.5973 22.4799 27.1869 22.0693 26.6805 22.0693C26.1743 22.0693 25.7637 22.4799 25.7637 22.9861C25.7637 23.4925 26.1743 23.9029 26.6805 23.9029Z" fill="black" style="fill:black;fill-opacity:1;"/>
<path d="M16.9752 15.086C16.8495 15.071 16.7355 15.1607 16.7205 15.2864C16.7055 15.4121 16.7952 15.5262 16.9209 15.5412L16.9752 15.086ZM16.9209 15.5412C18.4128 15.719 20.6825 16.048 22.6419 16.4563C23.6225 16.6607 24.5189 16.8835 25.1993 17.1154C25.54 17.2315 25.8195 17.3474 26.0262 17.461C26.2421 17.5798 26.3425 17.6768 26.3747 17.7382L26.7808 17.5255C26.6822 17.3373 26.477 17.1857 26.2469 17.0593C26.0074 16.9276 25.7 16.8017 25.3471 16.6815C24.6404 16.4407 23.723 16.2134 22.7355 16.0076C20.7589 15.5956 18.4752 15.2648 16.9752 15.086L16.9209 15.5412Z" fill="white" style="fill:white;fill-opacity:1;"/>
<path d="M26.5778 17.4534V25.6564" stroke="black" style="stroke:black;stroke-opacity:1;" stroke-width="0.485895" stroke-linecap="round"/>
</g>
</g>
<defs>
<clipPath id="clip0_1246_941">
<rect width="37" height="37" fill="white" style="fill:white;fill-opacity:1;"/>
</clipPath>
</defs>
</svg>
