<svg width="214" height="213" viewBox="0 0 214 213" fill="none" xmlns="http://www.w3.org/2000/svg">
<g clip-path="url(#clip0_1246_364)">
<path d="M107 211.037C164.734 211.037 211.537 164.234 211.537 106.5C211.537 48.7656 164.734 1.96289 107 1.96289C49.2656 1.96289 2.46289 48.7656 2.46289 106.5C2.46289 164.234 49.2656 211.037 107 211.037Z" stroke="black" style="stroke:black;stroke-opacity:1;" stroke-width="3"/>
<path d="M116.038 110.133C120.409 105.132 125.977 93.1475 113.28 85.2236C109.238 83.0553 100.016 82.573 97.546 91.3297C97.2623 92.3358 97.6016 95.5622 101.987 100.905C102.797 102.01 103.929 104.76 101.987 106.924" stroke="black" style="stroke:black;stroke-opacity:1;" stroke-width="3"/>
<path d="M114.182 124.745C119.729 128.398 134.092 134.13 140.223 120.477C141.824 116.178 141.053 106.976 132.042 105.715C131.007 105.571 127.856 106.343 123.157 111.412C122.172 112.363 119.601 113.859 117.193 112.227" stroke="black" style="stroke:black;stroke-opacity:1;" stroke-width="3"/>
<path d="M100.636 108.094C95.0882 104.44 80.7257 98.7074 74.5944 112.361C72.9935 116.659 73.7646 125.861 82.775 127.123C83.8102 127.268 86.9611 126.495 91.6607 121.427C92.6453 120.475 95.2165 118.98 97.6245 120.611" stroke="black" style="stroke:black;stroke-opacity:1;" stroke-width="3"/>
<path d="M130.782 76.5329V62.6729H144.78V88.4673" stroke="black" style="stroke:black;stroke-opacity:1;" stroke-width="3"/>
<path d="M98.8786 123.322C94.0404 127.874 87.9155 137.05 99.7806 146.175C103.591 148.727 112.722 150.105 116.034 141.631C116.414 140.658 116.392 137.414 112.548 131.669C111.85 130.491 110.99 127.643 113.135 125.678" stroke="black" style="stroke:black;stroke-opacity:1;" stroke-width="3"/>
<path d="M69.0982 154.808V99.1283C69.0982 98.5855 68.6588 98.1465 68.1166 98.1465H61.1222C60.2043 98.1465 59.7886 96.9989 60.4935 96.4111L107.198 57.4611C107.565 57.1548 108.1 57.1578 108.463 57.4684L154.102 96.4183C154.796 97.0105 154.377 98.1465 153.465 98.1465H147.377C146.834 98.1465 146.395 98.5855 146.395 99.1283V154.808C146.395 155.351 145.956 155.789 145.414 155.789H70.0798C69.5377 155.789 69.0982 155.351 69.0982 154.808Z" stroke="black" style="stroke:black;stroke-opacity:1;" stroke-width="3"/>
<path d="M107.242 125.817C112.417 125.817 116.612 121.622 116.612 116.447C116.612 111.273 112.417 107.078 107.242 107.078C102.068 107.078 97.873 111.273 97.873 116.447C97.873 121.622 102.068 125.817 107.242 125.817Z" stroke="black" style="stroke:black;stroke-opacity:1;" stroke-width="3"/>
<path d="M107.242 125.817C112.417 125.817 116.612 121.622 116.612 116.447C116.612 111.273 112.417 107.078 107.242 107.078C102.068 107.078 97.873 111.273 97.873 116.447C97.873 121.622 102.068 125.817 107.242 125.817Z" stroke="black" style="stroke:black;stroke-opacity:1;" stroke-width="3"/>
<path d="M107.242 125.817C112.417 125.817 116.612 121.622 116.612 116.447C116.612 111.273 112.417 107.078 107.242 107.078C102.068 107.078 97.873 111.273 97.873 116.447C97.873 121.622 102.068 125.817 107.242 125.817Z" stroke="black" style="stroke:black;stroke-opacity:1;" stroke-width="3"/>
<path d="M107.417 119.468C109.085 119.468 110.437 118.115 110.437 116.447C110.437 114.779 109.085 113.427 107.417 113.427C105.749 113.427 104.396 114.779 104.396 116.447C104.396 118.115 105.749 119.468 107.417 119.468Z" stroke="black" style="stroke:black;stroke-opacity:1;" stroke-width="3"/>
<path d="M107.417 119.468C109.085 119.468 110.437 118.115 110.437 116.447C110.437 114.779 109.085 113.427 107.417 113.427C105.749 113.427 104.396 114.779 104.396 116.447C104.396 118.115 105.749 119.468 107.417 119.468Z" stroke="black" style="stroke:black;stroke-opacity:1;" stroke-width="3"/>
<path d="M107.417 119.468C109.085 119.468 110.437 118.115 110.437 116.447C110.437 114.779 109.085 113.427 107.417 113.427C105.749 113.427 104.396 114.779 104.396 116.447C104.396 118.115 105.749 119.468 107.417 119.468Z" stroke="black" style="stroke:black;stroke-opacity:1;" stroke-width="3"/>
</g>
<defs>
<clipPath id="clip0_1246_364">
<rect width="213" height="213" fill="white" style="fill:white;fill-opacity:1;" transform="translate(0.5)"/>
</clipPath>
</defs>
</svg>
