<svg width="214" height="213" viewBox="0 0 214 213" fill="none" xmlns="http://www.w3.org/2000/svg">
<g clip-path="url(#clip0_1246_407)">
<path d="M107 211.037C164.734 211.037 211.537 164.234 211.537 106.5C211.537 48.7656 164.734 1.96289 107 1.96289C49.2656 1.96289 2.46289 48.7656 2.46289 106.5C2.46289 164.234 49.2656 211.037 107 211.037Z" stroke="black" style="stroke:black;stroke-opacity:1;" stroke-width="3"/>
<path d="M75.4659 148.185L65.0879 152.473C64.7386 152.618 64.734 153.111 65.0806 153.262L76.3757 158.176" stroke="black" style="stroke:black;stroke-opacity:1;" stroke-width="3" stroke-linecap="round"/>
<path d="M53.5049 71.7021L106.474 53.0049M106.474 53.0049L158.123 74.5922V132.878L106.474 110.862V53.0049Z" stroke="black" style="stroke:black;stroke-opacity:1;" stroke-width="3"/>
<path d="M120.621 58.9287V117.036" stroke="black" style="stroke:black;stroke-opacity:1;" stroke-width="3"/>
<path d="M143.939 68.6689V126.866" stroke="black" style="stroke:black;stroke-opacity:1;" stroke-width="3"/>
<path d="M120.604 116.894L134.752 112.29L143.869 115.573" stroke="black" style="stroke:black;stroke-opacity:1;" stroke-width="3"/>
<path d="M134.733 112.361V80.248" stroke="black" style="stroke:black;stroke-opacity:1;" stroke-width="3" stroke-linecap="round"/>
<path d="M120.586 90.6305L134.733 86.7412L143.957 89.8634" stroke="black" style="stroke:black;stroke-opacity:1;" stroke-width="3"/>
<path d="M120.586 97.7672L134.733 93.8779L143.957 97.0001" stroke="black" style="stroke:black;stroke-opacity:1;" stroke-width="3"/>
<path d="M127.775 95.751V114.519" stroke="black" style="stroke:black;stroke-opacity:1;" stroke-width="3"/>
<path d="M91.0594 67.8301L58.0361 78.3918V100.872L91.0594 89.471V67.8301Z" stroke="black" style="stroke:black;stroke-opacity:1;" stroke-width="3"/>
<path d="M66.1709 87.2412L70.9343 83.1558L76.1082 86.3136L83.1017 78.749" stroke="black" style="stroke:black;stroke-opacity:1;" stroke-width="3"/>
<path d="M106.437 110.773L57.2148 126.009L95.9472 145.741M95.9472 145.741V157.854L133.681 141.014V129.434L95.9472 145.741Z" stroke="black" style="stroke:black;stroke-opacity:1;" stroke-width="3"/>
<path d="M97.4639 113.574L161.477 141.246L125.491 159.728" stroke="black" style="stroke:black;stroke-opacity:1;" stroke-width="3"/>
<path d="M119.693 123.209L84.6719 139.872" stroke="black" style="stroke:black;stroke-opacity:1;" stroke-width="3"/>
<path d="M97.5 113.556V93.5928L54.1826 106.848V137.927L95.8944 157.98" stroke="black" style="stroke:black;stroke-opacity:1;" stroke-width="3"/>
<path d="M75.2343 120.46L74.8191 112.558C74.741 111.07 73.2637 110.069 71.8528 110.547L62.2383 113.805C61.3259 114.114 60.7119 114.971 60.7119 115.934V124.813" stroke="black" style="stroke:black;stroke-opacity:1;" stroke-width="3"/>
<path d="M93.0214 115.148L92.6531 108.448C92.5505 106.582 90.7132 105.317 88.9335 105.885L80.4841 108.587C79.3016 108.965 78.499 110.065 78.499 111.306V119.391" stroke="black" style="stroke:black;stroke-opacity:1;" stroke-width="3"/>
</g>
<defs>
<clipPath id="clip0_1246_407">
<rect width="213" height="213" fill="white" style="fill:white;fill-opacity:1;" transform="translate(0.5)"/>
</clipPath>
</defs>
</svg>
