<svg width="213" height="214" viewBox="0 0 213 214" fill="none" xmlns="http://www.w3.org/2000/svg">
<g clip-path="url(#clip0_1246_583)">
<path d="M106.5 212.299C164.655 212.299 211.799 165.155 211.799 107C211.799 48.8451 164.655 1.70117 106.5 1.70117C48.3451 1.70117 1.20117 48.8451 1.20117 107C1.20117 165.155 48.3451 212.299 106.5 212.299Z" stroke="black" style="stroke:black;stroke-opacity:1;" stroke-width="3"/>
<path d="M59.0435 122.9C62.2115 122.491 63.8551 124.518 64.281 125.582V125.966C68.7775 123.309 75.5224 122.304 78.3327 122.133C86.6105 120.601 96.0041 123.539 99.666 125.199H127.897C131.576 124.893 133.518 128.308 134.029 130.054C134.744 135.061 131.006 137.079 129.047 137.463L100.816 140.145C100.134 140.273 98.6698 140.809 98.2606 141.934C97.8523 143.058 99.027 143.679 99.666 143.85L123.299 142.444C134.846 141.32 139.948 138.654 141.054 137.463L159.961 126.093C165.479 122.108 169.499 123.837 170.819 125.199C173.884 129.082 170.989 132.779 169.158 134.141L136.2 154.069C130.988 158.055 125.683 159.647 123.681 159.946H116.4L66.4526 157.901C66.146 160.047 63.5145 161.18 62.2371 161.478L50.8679 162.245C45.656 162.858 43.9271 158.838 43.7142 156.751L41.6704 132.353C41.2616 125.71 44.9065 123.794 46.7801 123.666L59.0435 122.9Z" stroke="black" style="stroke:black;stroke-opacity:1;" stroke-width="3"/>
<path d="M140.033 132.225C140.749 130.998 139.82 128.648 139.267 127.626L155.107 119.833C158.479 118.607 160.515 119.663 161.11 120.345C157.432 120.856 145.526 128.477 140.033 132.225Z" stroke="black" style="stroke:black;stroke-opacity:1;" stroke-width="3"/>
<path d="M136.967 123.793C136.967 122.873 135.264 121.537 134.413 120.983L144.121 116.895C148.413 115.362 150.509 116.512 151.02 117.279C147.75 117.687 140.289 121.792 136.967 123.793Z" stroke="black" style="stroke:black;stroke-opacity:1;" stroke-width="3"/>
<path d="M54.1897 156.956C56.4189 156.956 58.226 155.148 58.226 152.919C58.226 150.69 56.4189 148.883 54.1897 148.883C51.9605 148.883 50.1533 150.69 50.1533 152.919C50.1533 155.148 51.9605 156.956 54.1897 156.956Z" stroke="black" style="stroke:black;stroke-opacity:1;" stroke-width="3"/>
<path d="M89.83 59.9215C85.1288 59.717 83.9541 63.8389 83.9541 65.9254V90.0688C86.3043 99.6754 94.3014 106.931 98.0057 109.358C107.51 115.184 112.015 116.213 113.079 116.001C118.189 114.57 124.15 110.976 126.492 109.358C138.96 101.081 141.481 90.7503 141.183 86.62V65.9254C141.694 61.2245 137.564 59.9641 135.434 59.9215C126.85 59.0017 119.339 54.684 116.656 52.6401C113.079 49.5742 109.886 51.3626 108.736 52.6401C99.9475 58.5674 92.4701 59.9641 89.83 59.9215Z" stroke="black" style="stroke:black;stroke-opacity:1;" stroke-width="3"/>
<path d="M90.8516 83.9374V66.8197C100.049 66.8197 109.162 61.199 112.568 58.3887V83.9374H90.8516Z" stroke="black" style="stroke:black;stroke-opacity:1;" stroke-width="3"/>
<path d="M112.696 109.103V84.1924H134.029C134.132 88.076 133.305 91.3463 132.88 92.4962C130.121 100.467 118.274 106.888 112.696 109.103Z" stroke="black" style="stroke:black;stroke-opacity:1;" stroke-width="3"/>
</g>
<defs>
<clipPath id="clip0_1246_583">
<rect width="213" height="213" fill="white" style="fill:white;fill-opacity:1;" transform="translate(0 0.5)"/>
</clipPath>
</defs>
</svg>
