<svg width="214" height="213" viewBox="0 0 214 213" fill="none" xmlns="http://www.w3.org/2000/svg">
<g clip-path="url(#clip0_1246_502)">
<mask id="mask0_1246_502" style="mask-type:luminance" maskUnits="userSpaceOnUse" x="0" y="0" width="214" height="213">
<path d="M213.5 0H0.5V213H213.5V0Z" fill="white" style="fill:white;fill-opacity:1;"/>
</mask>
<g mask="url(#mask0_1246_502)">
<path d="M107 211.037C164.734 211.037 211.537 164.234 211.537 106.5C211.537 48.7657 164.734 1.96289 107 1.96289C49.2657 1.96289 2.46289 48.7657 2.46289 106.5C2.46289 164.234 49.2657 211.037 107 211.037Z" stroke="black" style="stroke:black;stroke-opacity:1;" stroke-width="3"/>
<path d="M102.908 152.633V111.005H60.375V152.633" stroke="black" style="stroke:black;stroke-opacity:1;" stroke-width="3"/>
<path d="M60.8281 118.245H102.004" stroke="black" style="stroke:black;stroke-opacity:1;" stroke-width="3" stroke-linecap="round"/>
<path d="M96.5735 152.633V123.675H66.71V152.633" stroke="black" style="stroke:black;stroke-opacity:1;" stroke-width="3"/>
<path d="M67.6143 134.081H96.1204" stroke="black" style="stroke:black;stroke-opacity:1;" stroke-width="3" stroke-linecap="round"/>
<path d="M67.6143 143.131H96.1204" stroke="black" style="stroke:black;stroke-opacity:1;" stroke-width="3" stroke-linecap="round"/>
<path d="M99.2888 111.006C99.2888 106.508 95.6419 102.861 91.1438 102.861H72.1398C67.6415 102.861 63.9951 106.508 63.9951 111.006" stroke="black" style="stroke:black;stroke-opacity:1;" stroke-width="3"/>
<path d="M71.2344 102.86V76.1641H102.003V96.0732" stroke="black" style="stroke:black;stroke-opacity:1;" stroke-width="3" stroke-linecap="round"/>
<path d="M95.6699 104.218V96.5264H120.104V122.77" stroke="black" style="stroke:black;stroke-opacity:1;" stroke-width="3" stroke-linecap="round"/>
<path d="M95.6699 103.766H119.652" stroke="black" style="stroke:black;stroke-opacity:1;" stroke-width="3" stroke-linecap="round"/>
<path d="M124.28 117.566C124.672 117.013 125.49 117.013 125.882 117.566L134.564 129.818C135.024 130.468 134.559 131.367 133.763 131.367H116.399C115.603 131.367 115.138 130.468 115.598 129.818L124.28 117.566Z" stroke="black" style="stroke:black;stroke-opacity:1;" stroke-width="3"/>
<path d="M115.577 130.914V152.181" stroke="black" style="stroke:black;stroke-opacity:1;" stroke-width="3" stroke-linecap="round"/>
<path d="M122.363 134.986V146.751" stroke="black" style="stroke:black;stroke-opacity:1;" stroke-width="3" stroke-linecap="round"/>
<path d="M116.481 95.1688V82.0469H140.916V112.815" stroke="black" style="stroke:black;stroke-opacity:1;" stroke-width="3" stroke-linecap="round"/>
<path d="M131.866 125.485V114.626L153.133 111.458V152.47H102.456H60.375" stroke="black" style="stroke:black;stroke-opacity:1;" stroke-width="3" stroke-linecap="round"/>
<path d="M119.2 81.1425V70.2829L138.204 66.6631V81.1425" stroke="black" style="stroke:black;stroke-opacity:1;" stroke-width="3" stroke-linecap="round"/>
<path d="M122.816 68.9249V63.4951" stroke="black" style="stroke:black;stroke-opacity:1;" stroke-width="3" stroke-linecap="round"/>
<path d="M128.245 67.5671V59.875" stroke="black" style="stroke:black;stroke-opacity:1;" stroke-width="3" stroke-linecap="round"/>
<path d="M134.583 66.6618V63.042" stroke="black" style="stroke:black;stroke-opacity:1;" stroke-width="3" stroke-linecap="round"/>
<path d="M97.4777 74.8064V65.7568H75.7588V74.8064" stroke="black" style="stroke:black;stroke-opacity:1;" stroke-width="3"/>
<path d="M93.8608 65.7579V60.3281H78.4766V65.7579" stroke="black" style="stroke:black;stroke-opacity:1;" stroke-width="3"/>
<path d="M86.6172 124.128V151.98" stroke="black" style="stroke:black;stroke-opacity:1;" stroke-width="3" stroke-linecap="round"/>
<path d="M134.583 130.914V152.181" stroke="black" style="stroke:black;stroke-opacity:1;" stroke-width="3" stroke-linecap="round"/>
<path d="M128.697 134.986V146.751" stroke="black" style="stroke:black;stroke-opacity:1;" stroke-width="3" stroke-linecap="round"/>
<path d="M77.5684 124.128V151.98" stroke="black" style="stroke:black;stroke-opacity:1;" stroke-width="3" stroke-linecap="round"/>
</g>
</g>
<defs>
<clipPath id="clip0_1246_502">
<rect width="213" height="213" fill="white" style="fill:white;fill-opacity:1;" transform="translate(0.5)"/>
</clipPath>
</defs>
</svg>
