<svg width="213" height="214" viewBox="0 0 213 214" fill="none" xmlns="http://www.w3.org/2000/svg">
<path d="M106.565 210.571C163.727 210.571 210.067 164.232 210.067 107.069C210.067 49.9063 163.727 3.56641 106.565 3.56641C49.4014 3.56641 3.06152 49.9063 3.06152 107.069C3.06152 164.232 49.4014 210.571 106.565 210.571Z" stroke="black" style="stroke:black;stroke-opacity:1;" stroke-width="3"/>
<path d="M116.978 116.037L141.339 140.66" stroke="black" style="stroke:black;stroke-opacity:1;" stroke-width="3"/>
<path d="M106.5 120.097V155.461" stroke="black" style="stroke:black;stroke-opacity:1;" stroke-width="3"/>
<path d="M81.4825 129.396L71.0039 139.874" stroke="black" style="stroke:black;stroke-opacity:1;" stroke-width="3"/>
<path d="M88.6828 107H58.0342" stroke="black" style="stroke:black;stroke-opacity:1;" stroke-width="3"/>
<path d="M83.5777 86.569L71.0039 73.9951" stroke="black" style="stroke:black;stroke-opacity:1;" stroke-width="3"/>
<path d="M140.028 107H154.959" stroke="black" style="stroke:black;stroke-opacity:1;" stroke-width="3"/>
<path d="M107.282 94.9497V58.6689" stroke="black" style="stroke:black;stroke-opacity:1;" stroke-width="3"/>
<path d="M115.933 98.0936L140.687 72.6836" stroke="black" style="stroke:black;stroke-opacity:1;" stroke-width="3"/>
<path d="M106.501 154.55C132.763 154.55 154.053 133.261 154.053 106.999C154.053 80.7376 132.763 59.4482 106.501 59.4482C80.2394 59.4482 58.9502 80.7376 58.9502 106.999C58.9502 133.261 80.2394 154.55 106.501 154.55Z" stroke="black" style="stroke:black;stroke-opacity:1;" stroke-width="3"/>
<path d="M79.095 85.8514L88.4554 106.79C88.5152 106.922 88.5164 107.073 88.4596 107.207L79.07 129.447C78.8909 129.871 79.3068 130.303 79.7379 130.141L139.605 107.501C140.061 107.329 140.057 106.682 139.596 106.518L79.7496 85.144C79.3151 84.9892 78.9069 85.4299 79.095 85.8514Z" stroke="black" style="stroke:black;stroke-opacity:1;" stroke-width="3"/>
</svg>
