<svg width="37" height="37" viewBox="0 0 37 37" fill="none" xmlns="http://www.w3.org/2000/svg">
<g clip-path="url(#clip0_1246_990)">
<path d="M18.5 37C28.7173 37 37 28.7173 37 18.5C37 8.28273 28.7173 0 18.5 0C8.28273 0 0 8.28273 0 18.5C0 28.7173 8.28273 37 18.5 37Z" fill="white" style="fill:white;fill-opacity:1;"/>
<path d="M24.125 18.4375H19.4375V13.75H24.125M22.7188 24.0625C22.3457 24.0625 21.9881 23.9144 21.7244 23.6506C21.4606 23.3869 21.3125 23.0293 21.3125 22.6562C21.3125 22.2832 21.4606 21.9256 21.7244 21.6619C21.9881 21.3981 22.3457 21.25 22.7188 21.25C23.0918 21.25 23.4494 21.3981 23.7131 21.6619C23.9769 21.9256 24.125 22.2832 24.125 22.6562C24.125 23.0293 23.9769 23.3869 23.7131 23.6506C23.4494 23.9144 23.0918 24.0625 22.7188 24.0625ZM17.5625 18.4375H12.875V13.75H17.5625M14.2812 24.0625C13.9082 24.0625 13.5506 23.9144 13.2869 23.6506C13.0231 23.3869 12.875 23.0293 12.875 22.6562C12.875 22.2832 13.0231 21.9256 13.2869 21.6619C13.5506 21.3981 13.9082 21.25 14.2812 21.25C14.6543 21.25 15.0119 21.3981 15.2756 21.6619C15.5394 21.9256 15.6875 22.2832 15.6875 22.6562C15.6875 23.0293 15.5394 23.3869 15.2756 23.6506C15.0119 23.9144 14.6543 24.0625 14.2812 24.0625ZM18.5 10C14.3562 10 11 10.4688 11 13.75V22.6562C11 23.5265 11.3457 24.3611 11.961 24.9765C12.5764 25.5917 13.411 25.9375 14.2812 25.9375L12.875 27.3438V27.8125H24.125V27.3438L22.7188 25.9375C23.589 25.9375 24.4236 25.5917 25.039 24.9765C25.6542 24.3611 26 23.5265 26 22.6562V13.75C26 10.4688 22.6438 10 18.5 10Z" fill="black" style="fill:black;fill-opacity:1;"/>
</g>
<defs>
<clipPath id="clip0_1246_990">
<rect width="37" height="37" fill="white" style="fill:white;fill-opacity:1;"/>
</clipPath>
</defs>
</svg>
