<svg width="213" height="214" viewBox="0 0 213 214" fill="none" xmlns="http://www.w3.org/2000/svg">
<mask id="mask0_1246_572" style="mask-type:luminance" maskUnits="userSpaceOnUse" x="0" y="0" width="213" height="214">
<path d="M212.502 0.99707H0.49707V213.002H212.502V0.99707Z" fill="white" style="fill:white;fill-opacity:1;"/>
</mask>
<g mask="url(#mask0_1246_572)">
<path d="M106.5 211.432C164.177 211.432 210.932 164.677 210.932 107C210.932 49.3241 164.177 2.56836 106.5 2.56836C48.8241 2.56836 2.06836 49.3241 2.06836 107C2.06836 164.677 48.8241 211.432 106.5 211.432Z" stroke="black" style="stroke:black;stroke-opacity:1;" stroke-width="3"/>
<path d="M156.753 71.666H56.2473C54.0789 71.666 52.3213 73.4238 52.3213 75.592V93.6517C52.3213 95.8199 54.0789 97.5777 56.2473 97.5777H156.753C158.921 97.5777 160.679 95.8199 160.679 93.6517V75.592C160.679 73.4238 158.921 71.666 156.753 71.666Z" stroke="black" style="stroke:black;stroke-opacity:1;" stroke-width="3"/>
<path d="M66.455 97.5771C65.8007 114.852 72.7366 149.165 105.714 148.223C138.694 147.281 146.153 114.067 145.76 97.5771" stroke="black" style="stroke:black;stroke-opacity:1;" stroke-width="3"/>
<path d="M105.323 144.689C117.248 144.689 126.916 135.022 126.916 123.097C126.916 111.171 117.248 101.504 105.323 101.504C93.397 101.504 83.7295 111.171 83.7295 123.097C83.7295 135.022 93.397 144.689 105.323 144.689Z" stroke="black" style="stroke:black;stroke-opacity:1;" stroke-width="3"/>
<path d="M105.715 135.268C111.353 135.268 115.923 130.697 115.923 125.06C115.923 119.422 111.353 114.853 105.715 114.853C100.078 114.853 95.5078 119.422 95.5078 125.06C95.5078 130.697 100.078 135.268 105.715 135.268Z" stroke="black" style="stroke:black;stroke-opacity:1;" stroke-width="3"/>
<path d="M133.589 114.067C135.974 114.067 137.907 112.134 137.907 109.748C137.907 107.364 135.974 105.43 133.589 105.43C131.203 105.43 129.271 107.364 129.271 109.748C129.271 112.134 131.203 114.067 133.589 114.067Z" stroke="black" style="stroke:black;stroke-opacity:1;" stroke-width="3"/>
</g>
</svg>
