<svg width="214" height="213" viewBox="0 0 214 213" fill="none" xmlns="http://www.w3.org/2000/svg">
<g clip-path="url(#clip0_1246_387)">
<path d="M107 211.037C164.734 211.037 211.537 164.234 211.537 106.5C211.537 48.7656 164.734 1.96289 107 1.96289C49.2656 1.96289 2.46289 48.7656 2.46289 106.5C2.46289 164.234 49.2656 211.037 107 211.037Z" stroke="black" style="stroke:black;stroke-opacity:1;" stroke-width="3"/>
<path d="M71.8135 104.1H142.697" stroke="black" style="stroke:black;stroke-opacity:1;" stroke-width="3" stroke-linecap="round"/>
<path d="M71.3027 131.638H142.696" stroke="black" style="stroke:black;stroke-opacity:1;" stroke-width="3" stroke-linecap="round"/>
<path d="M73.4195 76.5625H43.6887C42.6045 76.5625 41.7256 77.4414 41.7256 78.5256V86.8383C41.7256 87.9225 42.6045 88.8015 43.6887 88.8015H73.4195C74.5037 88.8015 75.3826 87.9225 75.3826 86.8383V78.5256C75.3826 77.4414 74.5037 76.5625 73.4195 76.5625Z" stroke="black" style="stroke:black;stroke-opacity:1;" stroke-width="3"/>
<path d="M170.311 76.5625H140.58C139.496 76.5625 138.617 77.4414 138.617 78.5256V86.8383C138.617 87.9225 139.496 88.8015 140.58 88.8015H170.311C171.395 88.8015 172.274 87.9225 172.274 86.8383V78.5256C172.274 77.4414 171.395 76.5625 170.311 76.5625Z" stroke="black" style="stroke:black;stroke-opacity:1;" stroke-width="3"/>
<path d="M45.8057 87.7812V134.774C45.8057 135.858 46.6847 136.737 47.7689 136.737H69.3403C70.4245 136.737 71.3034 135.858 71.3034 134.774V87.7812" stroke="black" style="stroke:black;stroke-opacity:1;" stroke-width="3"/>
<path d="M142.696 87.7812V134.774C142.696 135.858 143.576 136.737 144.659 136.737H166.231C167.315 136.737 168.194 135.858 168.194 134.774V87.7812" stroke="black" style="stroke:black;stroke-opacity:1;" stroke-width="3"/>
<path d="M58.0439 88.291V92.3707" stroke="black" style="stroke:black;stroke-opacity:1;" stroke-width="3" stroke-linecap="round"/>
<path d="M58.0439 96.96V102.569" stroke="black" style="stroke:black;stroke-opacity:1;" stroke-width="3" stroke-linecap="round"/>
<path d="M154.936 96.96V102.569" stroke="black" style="stroke:black;stroke-opacity:1;" stroke-width="3" stroke-linecap="round"/>
<path d="M154.936 88.291V92.3707" stroke="black" style="stroke:black;stroke-opacity:1;" stroke-width="3" stroke-linecap="round"/>
<path d="M77.9326 95.9404V136.227" stroke="black" style="stroke:black;stroke-opacity:1;" stroke-width="3" stroke-linecap="round"/>
<path d="M86.0918 93.9004V136.226" stroke="black" style="stroke:black;stroke-opacity:1;" stroke-width="3" stroke-linecap="round"/>
<path d="M94.251 91.8604V136.226" stroke="black" style="stroke:black;stroke-opacity:1;" stroke-width="3" stroke-linecap="round"/>
<path d="M102.41 89.8213V136.227" stroke="black" style="stroke:black;stroke-opacity:1;" stroke-width="3" stroke-linecap="round"/>
<path d="M110.569 89.8213V136.227" stroke="black" style="stroke:black;stroke-opacity:1;" stroke-width="3" stroke-linecap="round"/>
<path d="M118.729 91.8604V136.226" stroke="black" style="stroke:black;stroke-opacity:1;" stroke-width="3" stroke-linecap="round"/>
<path d="M126.889 93.9004V136.226" stroke="black" style="stroke:black;stroke-opacity:1;" stroke-width="3" stroke-linecap="round"/>
<path d="M135.047 96.96V136.226" stroke="black" style="stroke:black;stroke-opacity:1;" stroke-width="3" stroke-linecap="round"/>
</g>
<defs>
<clipPath id="clip0_1246_387">
<rect width="213" height="213" fill="white" style="fill:white;fill-opacity:1;" transform="translate(0.5)"/>
</clipPath>
</defs>
</svg>
