<svg width="218" height="217" viewBox="0 0 218 217" fill="none" xmlns="http://www.w3.org/2000/svg">
<path d="M109 215C167.818 215 215.5 167.318 215.5 108.5C215.5 49.6817 167.818 2 109 2C50.1817 2 2.5 49.6817 2.5 108.5C2.5 167.318 50.1817 215 109 215Z" stroke="black" style="stroke:black;stroke-opacity:1;" stroke-width="3"/>
<path d="M108.835 57.1559L60.8049 75.1671C60.6215 75.2359 60.5 75.4112 60.5 75.6071V139.725C60.5 139.916 60.6164 140.089 60.7943 140.16L108.824 159.521C108.937 159.567 109.063 159.567 109.176 159.521L157.159 140.16C157.337 140.089 157.453 139.916 157.453 139.725V75.607C157.453 75.4112 157.331 75.2358 157.148 75.167L109.165 57.1559C109.059 57.116 108.941 57.1159 108.835 57.1559Z" stroke="black" style="stroke:black;stroke-opacity:1;" stroke-width="3" stroke-linecap="round"/>
<path d="M96.0467 85.4465L73.3006 94.2922C73.12 94.3624 73.001 94.5364 73.001 94.7302V113.433C73.001 113.771 73.3466 113.998 73.6568 113.864L96.4029 104.071C96.5753 103.997 96.687 103.827 96.687 103.639V85.8845C96.687 85.5539 96.3548 85.3267 96.0467 85.4465Z" stroke="black" style="stroke:black;stroke-opacity:1;" stroke-width="3" stroke-linecap="round"/>
<path d="M124.32 126.6V85.9665C124.32 85.6357 124.653 85.4084 124.961 85.5288L142.068 92.211C142.248 92.2815 142.367 92.4552 142.367 92.6488V133.505C142.367 133.838 142.03 134.065 141.721 133.941L124.614 127.036C124.437 126.964 124.32 126.791 124.32 126.6Z" stroke="black" style="stroke:black;stroke-opacity:1;" stroke-width="3" stroke-linecap="round"/>
<path d="M109.282 57V120.163" stroke="black" style="stroke:black;stroke-opacity:1;" stroke-width="3" stroke-miterlimit="16" stroke-linecap="round" stroke-linejoin="round"/>
<path d="M60.5 140.089L109.141 120.332C109.261 120.284 109.396 120.287 109.513 120.34L124.086 126.977" stroke="black" style="stroke:black;stroke-opacity:1;" stroke-width="3" stroke-miterlimit="16" stroke-linecap="round" stroke-linejoin="round"/>
<path d="M142.603 133.979L157.5 140.183" stroke="black" style="stroke:black;stroke-opacity:1;" stroke-width="3" stroke-miterlimit="16" stroke-linecap="round" stroke-linejoin="round"/>
</svg>
