<svg width="112" height="112" viewBox="0 0 112 112" fill="none" xmlns="http://www.w3.org/2000/svg">
<path d="M50.0152 72.5479H29.775C29.736 72.5479 29.7011 72.572 29.6874 72.6085L21.0476 95.5732C21.0246 95.6344 21.0698 95.6998 21.1352 95.6998H91.5415C91.6062 95.6998 91.6514 95.6357 91.6297 95.5747L83.4376 72.61C83.4243 72.5727 83.389 72.5479 83.3494 72.5479H62.7722" stroke="white" style="stroke:white;stroke-opacity:1;" stroke-width="1.96318" stroke-linecap="round"/>
<path d="M85.0382 77.106L36.207 95.6997" stroke="white" style="stroke:white;stroke-opacity:1;" stroke-width="1.96318" stroke-linecap="round"/>
<path d="M70.5996 82.6118L80.1221 95.6997" stroke="white" style="stroke:white;stroke-opacity:1;" stroke-width="1.96318" stroke-linecap="round"/>
<path d="M36.0723 72.5479L49.8822 90.3744" stroke="white" style="stroke:white;stroke-opacity:1;" stroke-width="1.96318" stroke-linecap="round"/>
<circle cx="56.5852" cy="43.9129" r="7.52551" stroke="white" style="stroke:white;stroke-opacity:1;" stroke-width="1.96318"/>
<path d="M72.4708 53.6576L72.4608 53.6738L72.4515 53.6904C68.7117 60.3584 60.6281 74.8374 56.3909 82.649C54.6778 79.5344 52.5447 75.4133 50.3766 71.2245C49.8713 70.2483 49.3641 69.2683 48.8598 68.2966C45.8298 62.4573 42.886 56.8723 41.1648 54.3102C39.3021 51.5376 38.2202 48.3146 38.0326 44.9797C37.8451 41.6447 38.5588 38.3208 40.0988 35.3568C41.6389 32.3928 43.9485 29.8981 46.7852 28.1345C49.6219 26.3709 52.8811 25.4036 56.2205 25.334C59.56 25.2643 62.8567 26.095 65.7644 27.7389C68.6721 29.3827 71.0837 31.779 72.7459 34.6762C74.4082 37.5735 75.2598 40.8648 75.2114 44.2046C75.163 47.5445 74.2163 50.8097 72.4708 53.6576Z" stroke="white" style="stroke:white;stroke-opacity:1;" stroke-width="1.96318"/>
</svg>
