<svg width="37" height="37" viewBox="0 0 37 37" fill="none" xmlns="http://www.w3.org/2000/svg">
<g clip-path="url(#clip0_1246_962)">
<path d="M18.5 37C28.7173 37 37 28.7173 37 18.5C37 8.28273 28.7173 0 18.5 0C8.28273 0 0 8.28273 0 18.5C0 28.7173 8.28273 37 18.5 37Z" fill="white" style="fill:white;fill-opacity:1;"/>
<mask id="mask0_1246_962" style="mask-type:luminance" maskUnits="userSpaceOnUse" x="10" y="10" width="18" height="18">
<path d="M28 10H10V28H28V10Z" fill="white" style="fill:white;fill-opacity:1;"/>
</mask>
<g mask="url(#mask0_1246_962)">
<path fill-rule="evenodd" clip-rule="evenodd" d="M12.5714 10C12.4492 9.99996 12.3295 10.0348 12.2263 10.1004C12.1232 10.1659 12.0408 10.2596 11.989 10.3703L10.0604 14.4961C10.0131 14.5977 9.99319 14.7098 10.0026 14.8214H10V16.0364C10 16.7101 10.2906 17.3556 10.81 17.8313C11.3269 18.307 12.0301 18.5744 12.763 18.5744H13.1487C13.87 18.579 14.567 18.314 15.103 17.8313C15.3139 17.6384 15.4861 17.4173 15.6173 17.1781C15.7806 16.9596 16.0454 16.9596 16.1984 17.1601C16.3309 17.407 16.507 17.6333 16.7217 17.8313C17.2399 18.307 17.9431 18.5744 18.676 18.5744H19.3664C20.0877 18.579 20.7847 18.314 21.3207 17.8313C21.5213 17.6461 21.6884 17.4366 21.817 17.209C21.9854 16.9454 22.2799 16.9519 22.4341 17.1961C22.564 17.4289 22.7337 17.6436 22.9381 17.8313C23.4563 18.307 24.1596 18.5744 24.8924 18.5744H25.237C25.9583 18.579 26.6553 18.314 27.1913 17.8313C27.7094 17.3556 28 16.7101 28 16.0364V14.8214H27.9974C28.0068 14.7098 27.9869 14.5977 27.9396 14.4961L26.011 10.3703C25.9592 10.2596 25.8768 10.1659 25.7737 10.1004C25.6705 10.0348 25.5508 9.99996 25.4286 10H12.5714ZM11.2857 26.7143V19.9373C12.8131 20.4413 14.635 20.2163 15.886 19.2481C17.5549 20.539 20.449 20.539 22.1166 19.2481C23.374 20.2201 25.192 20.4413 26.7143 19.9244V26.7143C26.7143 27.0553 26.5788 27.3823 26.3377 27.6234C26.0966 27.8645 25.7696 28 25.4286 28H23.815V23.1271C23.8147 23.0895 23.8066 23.0523 23.7911 23.018C23.7756 22.9837 23.7531 22.953 23.725 22.9279C23.665 22.874 23.587 22.8446 23.5064 22.8456H20.9453C20.8647 22.8446 20.7867 22.874 20.7267 22.9279C20.6986 22.953 20.6761 22.9837 20.6606 23.018C20.6451 23.0523 20.637 23.0895 20.6367 23.1271V28H12.5714C12.2304 28 11.9034 27.8645 11.6623 27.6234C11.4212 27.3823 11.2857 27.0553 11.2857 26.7143ZM13.2169 23.8343V22.2143C13.2169 22.0438 13.2846 21.8803 13.4051 21.7597C13.5257 21.6392 13.6892 21.5714 13.8597 21.5714H17.7349C17.9054 21.5714 18.0689 21.6392 18.1894 21.7597C18.31 21.8803 18.3777 22.0438 18.3777 22.2143V23.8343C18.3777 24.0048 18.31 24.1683 18.1894 24.2889C18.0689 24.4094 17.9054 24.4771 17.7349 24.4771H13.8597C13.6892 24.4771 13.5257 24.4094 13.4051 24.2889C13.2846 24.1683 13.2169 24.0048 13.2169 23.8343Z" fill="black" style="fill:black;fill-opacity:1;"/>
</g>
</g>
<defs>
<clipPath id="clip0_1246_962">
<rect width="37" height="37" fill="white" style="fill:white;fill-opacity:1;"/>
</clipPath>
</defs>
</svg>
