<svg width="37" height="37" viewBox="0 0 37 37" fill="none" xmlns="http://www.w3.org/2000/svg">
<g clip-path="url(#clip0_1246_999)">
<path d="M18.5 37C28.7173 37 37 28.7173 37 18.5C37 8.28273 28.7173 0 18.5 0C8.28273 0 0 8.28273 0 18.5C0 28.7173 8.28273 37 18.5 37Z" fill="white" style="fill:white;fill-opacity:1;"/>
<path d="M9.1748 18.0777H15.4758C15.5937 18.0777 15.6893 18.1733 15.6893 18.2913V27.7961C15.6893 27.9141 15.5937 28.0097 15.4758 28.0097H9.1748C9.05684 28.0097 8.96121 27.9141 8.96121 27.7961V18.2913C8.96121 18.1733 9.05684 18.0777 9.1748 18.0777Z" fill="black" stroke="white" style="fill:black;fill-opacity:1;stroke:white;stroke-opacity:1;" stroke-width="0.635946"/>
<path d="M15.6894 10.7412V27.7961C15.6894 27.9141 15.7851 28.0097 15.9031 28.0097H23.8059C23.9239 28.0097 24.0195 27.9141 24.0195 27.7961V10.7548C24.0195 10.6633 23.9614 10.5821 23.8749 10.5527L19.3994 9.02692C19.3487 9.0096 19.2932 9.01203 19.2442 9.03368L15.8168 10.5457C15.7394 10.5799 15.6894 10.6566 15.6894 10.7412Z" fill="black" stroke="white" style="fill:black;fill-opacity:1;stroke:white;stroke-opacity:1;" stroke-width="0.635946"/>
<path d="M25.4078 15.8349H24.233C24.115 15.8349 24.0195 15.9305 24.0195 16.0485V27.6892C24.0195 27.8072 24.115 27.9028 24.233 27.9028H25.4078C25.5258 27.9028 25.6214 27.8072 25.6214 27.6892V16.0485C25.6214 15.9305 25.5258 15.8349 25.4078 15.8349Z" fill="black" stroke="white" style="fill:black;fill-opacity:1;stroke:white;stroke-opacity:1;" stroke-width="0.635946"/>
<path d="M28.8212 17.8033L25.9376 16.222C25.7953 16.1439 25.6213 16.2469 25.6213 16.4092V27.796C25.6213 27.914 25.717 28.0097 25.835 28.0097H28.7184C28.8364 28.0097 28.9321 27.914 28.9321 27.796V17.9905C28.9321 17.9125 28.8895 17.8408 28.8212 17.8033Z" fill="black" stroke="white" style="fill:black;fill-opacity:1;stroke:white;stroke-opacity:1;" stroke-width="0.635946" stroke-linecap="round"/>
<path d="M8 28.0096H30" stroke="white" style="stroke:white;stroke-opacity:1;" stroke-width="0.635946" stroke-linecap="round"/>
<path d="M9.9223 19.3592H10.9902" stroke="white" style="stroke:white;stroke-opacity:1;" stroke-width="0.635946" stroke-linecap="round"/>
<path d="M11.8446 19.3592H12.9125" stroke="white" style="stroke:white;stroke-opacity:1;" stroke-width="0.635946" stroke-linecap="round"/>
<path d="M13.767 19.3592H14.8349" stroke="white" style="stroke:white;stroke-opacity:1;" stroke-width="0.635946" stroke-linecap="round"/>
<path d="M9.9223 20.8543H10.9902" stroke="white" style="stroke:white;stroke-opacity:1;" stroke-width="0.635946" stroke-linecap="round"/>
<path d="M11.8446 20.8543H12.9125" stroke="white" style="stroke:white;stroke-opacity:1;" stroke-width="0.635946" stroke-linecap="round"/>
<path d="M13.767 20.8543H14.8349" stroke="white" style="stroke:white;stroke-opacity:1;" stroke-width="0.635946" stroke-linecap="round"/>
<path d="M9.9223 22.3495H10.9902" stroke="white" style="stroke:white;stroke-opacity:1;" stroke-width="0.635946" stroke-linecap="round"/>
<path d="M11.8446 22.3495H12.9125" stroke="white" style="stroke:white;stroke-opacity:1;" stroke-width="0.635946" stroke-linecap="round"/>
<path d="M13.767 22.3495H14.8349" stroke="white" style="stroke:white;stroke-opacity:1;" stroke-width="0.635946" stroke-linecap="round"/>
<path d="M9.9223 23.8447H10.9902" stroke="white" style="stroke:white;stroke-opacity:1;" stroke-width="0.635946" stroke-linecap="round"/>
<path d="M11.8446 23.8447H12.9125" stroke="white" style="stroke:white;stroke-opacity:1;" stroke-width="0.635946" stroke-linecap="round"/>
<path d="M13.767 23.8447H14.8349" stroke="white" style="stroke:white;stroke-opacity:1;" stroke-width="0.635946" stroke-linecap="round"/>
<path d="M9.9223 25.3398H10.9902" stroke="white" style="stroke:white;stroke-opacity:1;" stroke-width="0.635946" stroke-linecap="round"/>
<path d="M11.8446 25.3398H12.9125" stroke="white" style="stroke:white;stroke-opacity:1;" stroke-width="0.635946" stroke-linecap="round"/>
<path d="M13.767 25.3398H14.8349" stroke="white" style="stroke:white;stroke-opacity:1;" stroke-width="0.635946" stroke-linecap="round"/>
<path d="M9.9223 26.8349H10.9902" stroke="white" style="stroke:white;stroke-opacity:1;" stroke-width="0.635946" stroke-linecap="round"/>
<path d="M11.8446 26.8349H12.9125" stroke="white" style="stroke:white;stroke-opacity:1;" stroke-width="0.635946" stroke-linecap="round"/>
<path d="M13.767 26.8349H14.8349" stroke="white" style="stroke:white;stroke-opacity:1;" stroke-width="0.635946" stroke-linecap="round"/>
<path d="M16.7572 11.4564V12.6311" stroke="white" style="stroke:white;stroke-opacity:1;" stroke-width="0.635946" stroke-linecap="round"/>
<path d="M16.8641 13.8058V14.9806" stroke="white" style="stroke:white;stroke-opacity:1;" stroke-width="0.635946" stroke-linecap="round"/>
<path d="M16.8641 16.1553V17.33" stroke="white" style="stroke:white;stroke-opacity:1;" stroke-width="0.635946" stroke-linecap="round"/>
<path d="M16.8641 18.5048V19.6796" stroke="white" style="stroke:white;stroke-opacity:1;" stroke-width="0.635946" stroke-linecap="round"/>
<path d="M16.8641 21.0679V22.2427" stroke="white" style="stroke:white;stroke-opacity:1;" stroke-width="0.635946" stroke-linecap="round"/>
<path d="M16.8641 23.4175V24.5923" stroke="white" style="stroke:white;stroke-opacity:1;" stroke-width="0.635946" stroke-linecap="round"/>
<path d="M16.8641 25.767V26.9418" stroke="white" style="stroke:white;stroke-opacity:1;" stroke-width="0.635946" stroke-linecap="round"/>
<path d="M18.1456 11.0291V12.2039" stroke="white" style="stroke:white;stroke-opacity:1;" stroke-width="0.635946" stroke-linecap="round"/>
<path d="M18.2526 13.3786V14.5534" stroke="white" style="stroke:white;stroke-opacity:1;" stroke-width="0.635946" stroke-linecap="round"/>
<path d="M18.2526 15.7282V16.9029" stroke="white" style="stroke:white;stroke-opacity:1;" stroke-width="0.635946" stroke-linecap="round"/>
<path d="M18.2526 18.0777V19.2524" stroke="white" style="stroke:white;stroke-opacity:1;" stroke-width="0.635946" stroke-linecap="round"/>
<path d="M18.2526 20.6408V21.8155" stroke="white" style="stroke:white;stroke-opacity:1;" stroke-width="0.635946" stroke-linecap="round"/>
<path d="M18.2526 22.9902V24.165" stroke="white" style="stroke:white;stroke-opacity:1;" stroke-width="0.635946" stroke-linecap="round"/>
<path d="M18.2526 25.3398V26.5145" stroke="white" style="stroke:white;stroke-opacity:1;" stroke-width="0.635946" stroke-linecap="round"/>
<path d="M20.4951 10.8155V11.8835" stroke="white" style="stroke:white;stroke-opacity:1;" stroke-width="0.635946" stroke-linecap="round"/>
<path d="M20.4951 13.165V14.2329" stroke="white" style="stroke:white;stroke-opacity:1;" stroke-width="0.635946" stroke-linecap="round"/>
<path d="M20.4951 15.5145V16.5825" stroke="white" style="stroke:white;stroke-opacity:1;" stroke-width="0.635946" stroke-linecap="round"/>
<path d="M20.4951 17.864V18.932" stroke="white" style="stroke:white;stroke-opacity:1;" stroke-width="0.635946" stroke-linecap="round"/>
<path d="M20.2816 20.4271V21.4951" stroke="white" style="stroke:white;stroke-opacity:1;" stroke-width="0.635946" stroke-linecap="round"/>
<path d="M20.4951 22.7766V23.8447" stroke="white" style="stroke:white;stroke-opacity:1;" stroke-width="0.635946" stroke-linecap="round"/>
<path d="M20.4951 24.9126V25.9805" stroke="white" style="stroke:white;stroke-opacity:1;" stroke-width="0.635946" stroke-linecap="round"/>
<path d="M21.5632 11.2426V12.3106" stroke="white" style="stroke:white;stroke-opacity:1;" stroke-width="0.635946" stroke-linecap="round"/>
<path d="M21.5632 13.5922V14.6602" stroke="white" style="stroke:white;stroke-opacity:1;" stroke-width="0.635946" stroke-linecap="round"/>
<path d="M21.5632 15.9418V17.0097" stroke="white" style="stroke:white;stroke-opacity:1;" stroke-width="0.635946" stroke-linecap="round"/>
<path d="M21.5632 18.2913V19.3592" stroke="white" style="stroke:white;stroke-opacity:1;" stroke-width="0.635946" stroke-linecap="round"/>
<path d="M21.3495 20.8543V21.9222" stroke="white" style="stroke:white;stroke-opacity:1;" stroke-width="0.635946" stroke-linecap="round"/>
<path d="M21.5632 23.2038V24.2717" stroke="white" style="stroke:white;stroke-opacity:1;" stroke-width="0.635946" stroke-linecap="round"/>
<path d="M21.5632 25.3398V26.4078" stroke="white" style="stroke:white;stroke-opacity:1;" stroke-width="0.635946" stroke-linecap="round"/>
<path d="M22.631 11.6698V12.7378" stroke="white" style="stroke:white;stroke-opacity:1;" stroke-width="0.635946" stroke-linecap="round"/>
<path d="M22.631 14.0193V15.0873" stroke="white" style="stroke:white;stroke-opacity:1;" stroke-width="0.635946" stroke-linecap="round"/>
<path d="M22.631 16.3689V17.4369" stroke="white" style="stroke:white;stroke-opacity:1;" stroke-width="0.635946" stroke-linecap="round"/>
<path d="M22.631 18.7184V19.7863" stroke="white" style="stroke:white;stroke-opacity:1;" stroke-width="0.635946" stroke-linecap="round"/>
<path d="M22.4175 21.2816V22.3496" stroke="white" style="stroke:white;stroke-opacity:1;" stroke-width="0.635946" stroke-linecap="round"/>
<path d="M22.631 23.631V24.6989" stroke="white" style="stroke:white;stroke-opacity:1;" stroke-width="0.635946" stroke-linecap="round"/>
<path d="M22.631 25.767V26.8349" stroke="white" style="stroke:white;stroke-opacity:1;" stroke-width="0.635946" stroke-linecap="round"/>
<path d="M26.796 17.7572V18.6116" stroke="white" style="stroke:white;stroke-opacity:1;" stroke-width="0.635946" stroke-linecap="round"/>
<path d="M26.6893 19.3592V20.2135" stroke="white" style="stroke:white;stroke-opacity:1;" stroke-width="0.635946" stroke-linecap="round"/>
<path d="M26.6893 21.2816V22.136" stroke="white" style="stroke:white;stroke-opacity:1;" stroke-width="0.635946" stroke-linecap="round"/>
<path d="M26.6893 23.4175V24.2718" stroke="white" style="stroke:white;stroke-opacity:1;" stroke-width="0.635946" stroke-linecap="round"/>
<path d="M26.6893 25.5534V26.4078" stroke="white" style="stroke:white;stroke-opacity:1;" stroke-width="0.635946" stroke-linecap="round"/>
<path d="M27.9709 18.5048V19.3592" stroke="white" style="stroke:white;stroke-opacity:1;" stroke-width="0.635946" stroke-linecap="round"/>
<path d="M27.864 20.1067V20.9611" stroke="white" style="stroke:white;stroke-opacity:1;" stroke-width="0.635946" stroke-linecap="round"/>
<path d="M27.864 22.0291V22.8835" stroke="white" style="stroke:white;stroke-opacity:1;" stroke-width="0.635946" stroke-linecap="round"/>
<path d="M27.864 24.1651V25.0193" stroke="white" style="stroke:white;stroke-opacity:1;" stroke-width="0.635946" stroke-linecap="round"/>
<path d="M27.864 26.3009V27.1553" stroke="white" style="stroke:white;stroke-opacity:1;" stroke-width="0.635946" stroke-linecap="round"/>
<path d="M19.3204 9V28.0097" stroke="white" style="stroke:white;stroke-opacity:1;" stroke-width="0.635946"/>
</g>
<defs>
<clipPath id="clip0_1246_999">
<rect width="37" height="37" fill="white" style="fill:white;fill-opacity:1;"/>
</clipPath>
</defs>
</svg>
