<svg width="37" height="37" viewBox="0 0 37 37" fill="none" xmlns="http://www.w3.org/2000/svg">
<g clip-path="url(#clip0_1246_1070)">
<path d="M18.5 37C28.7173 37 37 28.7173 37 18.5C37 8.28273 28.7173 0 18.5 0C8.28273 0 0 8.28273 0 18.5C0 28.7173 8.28273 37 18.5 37Z" fill="white" style="fill:white;fill-opacity:1;"/>
<path d="M17.0769 17.8462C9.87684 14.1539 12.2307 11.077 14.3076 10H19.6154C18.6154 10.6154 18.0462 12.2154 23.7692 13.6923C29.4923 15.1692 27.3847 23.8461 25.6154 28H9C16.5692 20.9846 17.5385 18.3077 17.0769 17.8462Z" fill="black" style="fill:black;fill-opacity:1;"/>
<path d="M16.8462 10.2308C15.0769 11.3078 13.5231 14.2 21.4615 17.1539C22.7693 17.9231 23.3539 21.1693 15.2308 28" stroke="white" style="stroke:white;stroke-opacity:1;" stroke-width="0.513967" stroke-dasharray="0.97 0.97"/>
</g>
<defs>
<clipPath id="clip0_1246_1070">
<rect width="37" height="37" fill="white" style="fill:white;fill-opacity:1;"/>
</clipPath>
</defs>
</svg>
