<svg width="37" height="37" viewBox="0 0 37 37" fill="none" xmlns="http://www.w3.org/2000/svg">
<g clip-path="url(#clip0_1246_1091)">
<mask id="mask0_1246_1091" style="mask-type:luminance" maskUnits="userSpaceOnUse" x="0" y="0" width="37" height="37">
<path d="M37 0H0V37H37V0Z" fill="white" style="fill:white;fill-opacity:1;"/>
</mask>
<g mask="url(#mask0_1246_1091)">
<path d="M18.5 37C28.7173 37 37 28.7173 37 18.5C37 8.28273 28.7173 0 18.5 0C8.28273 0 0 8.28273 0 18.5C0 28.7173 8.28273 37 18.5 37Z" fill="white" style="fill:white;fill-opacity:1;"/>
<path d="M25 12H11V27H25V12Z" fill="black" style="fill:black;fill-opacity:1;"/>
<path d="M10 27.5H26.5" stroke="black" style="stroke:black;stroke-opacity:1;" stroke-linecap="round"/>
<path d="M20 23H16V28H20V23Z" fill="white" style="fill:white;fill-opacity:1;"/>
<path d="M15 14H13V16H15V14Z" fill="white" style="fill:white;fill-opacity:1;"/>
<path d="M15 19H13V21H15V19Z" fill="white" style="fill:white;fill-opacity:1;"/>
<path d="M15 23H13V25H15V23Z" fill="white" style="fill:white;fill-opacity:1;"/>
<path d="M19 14H17V16H19V14Z" fill="white" style="fill:white;fill-opacity:1;"/>
<path d="M19 19H17V21H19V19Z" fill="white" style="fill:white;fill-opacity:1;"/>
<path d="M23 14H21V16H23V14Z" fill="white" style="fill:white;fill-opacity:1;"/>
<path d="M23 19H21V21H23V19Z" fill="white" style="fill:white;fill-opacity:1;"/>
<path d="M23 23H21V25H23V23Z" fill="white" style="fill:white;fill-opacity:1;"/>
<path d="M13 11C13 10.4477 13.4477 10 14 10H22C22.5523 10 23 10.4477 23 11V12H13V11Z" fill="black" style="fill:black;fill-opacity:1;"/>
<path d="M18.5 26C18.5 25.7239 18.2761 25.5 18 25.5C17.7239 25.5 17.5 25.7239 17.5 26H18.5ZM17.5 26V28H18.5V26H17.5Z" fill="black" style="fill:black;fill-opacity:1;"/>
</g>
</g>
<defs>
<clipPath id="clip0_1246_1091">
<rect width="37" height="37" fill="white" style="fill:white;fill-opacity:1;"/>
</clipPath>
</defs>
</svg>
