<svg width="214" height="213" viewBox="0 0 214 213" fill="none" xmlns="http://www.w3.org/2000/svg">
<g clip-path="url(#clip0_1246_567)">
<path d="M107 211.037C164.734 211.037 211.537 164.234 211.537 106.5C211.537 48.7656 164.734 1.96289 107 1.96289C49.2656 1.96289 2.46289 48.7656 2.46289 106.5C2.46289 164.234 49.2656 211.037 107 211.037Z" stroke="black" style="stroke:black;stroke-opacity:1;" stroke-width="3"/>
<path d="M101.824 118.957C96.2346 118.219 86.5966 117.842 76.2243 119.111C64.7788 120.51 52.6669 123.886 44.1004 130.776C39.8405 134.203 37.7664 137.946 37.3771 141.607C36.9873 145.274 38.2617 149.103 41.1738 152.749C47.0314 160.083 59.3409 166.406 76.3583 168.319C93.4161 170.238 110.06 168.533 122.611 164.269C128.887 162.136 134.072 159.385 137.774 156.186C141.47 152.992 143.616 149.419 144.021 145.603C144.669 139.519 141.225 134.477 136.217 130.52C131.582 126.858 125.83 124.322 121.57 122.994" stroke="black" style="stroke:black;stroke-opacity:1;" stroke-width="3" stroke-linecap="round"/>
<path d="M146.005 63.2539H112.458C112.376 63.2539 112.297 63.2906 112.243 63.3541L97.9129 80.4065C97.8595 80.47 97.7808 80.5067 97.6979 80.5067H82.1861C80.7916 80.5067 79.4869 81.1946 78.6992 82.3454C77.7274 83.7648 77.7258 85.6509 78.6758 87.085C79.47 88.2841 80.8227 89.0206 82.2608 89.0206H101.191C101.268 89.0206 101.343 88.9881 101.396 88.9308L111.201 78.3675C111.337 78.2214 111.577 78.2589 111.661 78.4393L118.817 93.7027C118.853 93.7803 118.852 93.8703 118.815 93.947L98.8862 134.043C98.2077 135.408 98.0837 136.983 98.5402 138.438L98.6137 138.671C99.5242 141.573 102.567 143.232 105.499 142.427C107.038 142.004 108.327 140.949 109.045 139.524L129.875 98.2307C130.002 97.9798 130.378 98.0502 130.405 98.3298L132.382 118.563C132.706 121.873 135.489 124.397 138.814 124.397H170.967C172.675 124.397 174.295 123.629 175.376 122.305C177.017 120.294 177.091 117.428 175.555 115.336L175.445 115.186C174.328 113.664 172.552 112.765 170.663 112.765H142.581C142.429 112.765 142.305 112.644 142.3 112.493L141.6 91.9073C141.586 91.504 141.495 91.107 141.331 90.7382L133.127 72.2471C133.046 72.0613 133.181 71.8522 133.384 71.8522H142.144C142.246 71.8522 142.34 71.9078 142.389 71.9973L149.058 84.0685C149.667 85.1707 150.686 85.9874 151.896 86.3404L152.36 86.4762C154.289 87.0395 156.346 86.1524 157.26 84.3631C157.937 83.0367 157.859 81.45 157.053 80.1972L146.242 63.383C146.19 63.3025 146.101 63.2539 146.005 63.2539Z" stroke="black" style="stroke:black;stroke-opacity:1;" stroke-width="3" stroke-linecap="round"/>
<path d="M113.873 58.8869C118.072 58.8869 121.477 55.4827 121.477 51.2833C121.477 47.0839 118.072 43.6797 113.873 43.6797C109.674 43.6797 106.27 47.0839 106.27 51.2833C106.27 55.4827 109.674 58.8869 113.873 58.8869Z" stroke="black" style="stroke:black;stroke-opacity:1;" stroke-width="3"/>
</g>
<defs>
<clipPath id="clip0_1246_567">
<rect width="213" height="213" fill="white" style="fill:white;fill-opacity:1;" transform="translate(0.5)"/>
</clipPath>
</defs>
</svg>
