<svg width="37" height="37" viewBox="0 0 37 37" fill="none" xmlns="http://www.w3.org/2000/svg">
<g clip-path="url(#clip0_1246_993)">
<path d="M37 18.5C37 28.7173 28.7173 37 18.5 37C8.28273 37 0 28.7173 0 18.5C0 8.28273 8.28273 0 18.5 0C28.7173 0 37 8.28273 37 18.5Z" fill="white" style="fill:white;fill-opacity:1;"/>
<path d="M23.5558 11.175L14.3502 20.8088C10.2398 20.2951 9.78308 21.3083 10.0685 21.8792C10.9249 21.8078 13.3736 22.9532 13.4939 23.1637C14.179 24.3625 14.4929 25.6613 14.5643 26.1608C15.9344 27.3597 16.277 24.0914 16.277 22.3073L25.6967 13.3158C26.3389 12.6736 27.4093 11.175 26.553 10.3187C25.6967 9.46235 24.1981 10.5328 23.5558 11.175Z" fill="black" stroke="white" style="fill:black;fill-opacity:1;stroke:white;stroke-opacity:1;" stroke-width="0.432692"/>
<path d="M22.9137 11.817C23.5559 10.9609 26.339 11.8174 24.8405 13.9581" stroke="white" style="stroke:white;stroke-opacity:1;" stroke-width="0.432692" stroke-linecap="square"/>
<path d="M23.3415 25.947L20.3444 18.454L23.1275 15.885C23.2702 16.4559 23.7697 18.6681 24.626 22.9498C25.4824 27.2315 24.1265 26.7319 23.3415 25.947Z" fill="black" stroke="white" style="fill:black;fill-opacity:1;stroke:white;stroke-opacity:1;" stroke-width="0.432692"/>
<path d="M11.139 13.316C8.91253 10.9182 16.7766 12.6023 20.9869 13.7441L18.2037 16.5272L11.139 13.316Z" fill="black" stroke="white" style="fill:black;fill-opacity:1;stroke:white;stroke-opacity:1;" stroke-width="0.432692"/>
</g>
<defs>
<clipPath id="clip0_1246_993">
<rect width="37" height="37" fill="white" style="fill:white;fill-opacity:1;"/>
</clipPath>
</defs>
</svg>
