<svg width="214" height="213" viewBox="0 0 214 213" fill="none" xmlns="http://www.w3.org/2000/svg">
<g clip-path="url(#clip0_1246_457)">
<mask id="mask0_1246_457" style="mask-type:luminance" maskUnits="userSpaceOnUse" x="0" y="0" width="214" height="213">
<path d="M213.5 0H0.5V213H213.5V0Z" fill="white" style="fill:white;fill-opacity:1;"/>
</mask>
<g mask="url(#mask0_1246_457)">
<path d="M107 211.037C164.734 211.037 211.537 164.234 211.537 106.5C211.537 48.7657 164.734 1.96289 107 1.96289C49.2657 1.96289 2.46289 48.7657 2.46289 106.5C2.46289 164.234 49.2657 211.037 107 211.037Z" stroke="black" style="stroke:black;stroke-opacity:1;" stroke-width="3"/>
<path d="M115.025 70.7275H117.925C119.302 70.7275 120.49 71.6949 120.769 73.0436L121.06 74.451C121.259 75.4124 121.93 76.2082 122.844 76.5666L129.484 79.1707C130.221 79.4596 131.044 79.4354 131.762 79.1038L133.603 78.2544C134.666 77.7637 135.919 77.9593 136.782 78.7505L142.382 83.8835C143.372 84.7915 143.611 86.2605 142.958 87.4353L142.044 89.081C141.605 89.8705 141.559 90.8193 141.918 91.6479L144.865 98.4375C145.265 99.3592 146.173 99.955 147.178 99.955C148.57 99.955 149.699 101.084 149.699 102.476V110.001C149.699 111.08 149.101 112.069 148.147 112.572L147.076 113.134C146.539 113.418 146.104 113.863 145.832 114.407L142.529 121.012C142.127 121.814 142.12 122.758 142.508 123.567L143.241 125.092C143.744 126.141 143.573 127.39 142.806 128.265L137.669 134.117C136.834 135.071 135.476 135.371 134.316 134.86L132.832 134.208C132.124 133.896 131.321 133.88 130.602 134.162L123.714 136.863C122.924 137.173 122.309 137.814 122.03 138.617L121.511 140.117C121.106 141.287 120.004 142.072 118.766 142.072H115.207" stroke="black" style="stroke:black;stroke-opacity:1;" stroke-width="3" stroke-linecap="round"/>
<path d="M85.0674 90.6973H93.7811" stroke="black" style="stroke:black;stroke-opacity:1;" stroke-width="3" stroke-linecap="round"/>
<path d="M85.0674 97.5684H93.7811" stroke="black" style="stroke:black;stroke-opacity:1;" stroke-width="3" stroke-linecap="round"/>
<path d="M85.0684 104.438H93.7821" stroke="black" style="stroke:black;stroke-opacity:1;" stroke-width="3" stroke-linecap="round"/>
<path d="M85.0684 111.31H93.7821" stroke="black" style="stroke:black;stroke-opacity:1;" stroke-width="3" stroke-linecap="round"/>
<path d="M85.0684 118.181H93.7821" stroke="black" style="stroke:black;stroke-opacity:1;" stroke-width="3" stroke-linecap="round"/>
<path d="M85.0684 125.052H93.7821" stroke="black" style="stroke:black;stroke-opacity:1;" stroke-width="3" stroke-linecap="round"/>
<path d="M85.0684 131.923H93.7821" stroke="black" style="stroke:black;stroke-opacity:1;" stroke-width="3" stroke-linecap="round"/>
<path d="M103.587 78.3516H109.942" stroke="black" style="stroke:black;stroke-opacity:1;" stroke-width="3" stroke-linecap="round"/>
<path d="M103.587 84.8877H109.942" stroke="black" style="stroke:black;stroke-opacity:1;" stroke-width="3" stroke-linecap="round"/>
<path d="M103.587 91.4229H109.942" stroke="black" style="stroke:black;stroke-opacity:1;" stroke-width="3" stroke-linecap="round"/>
<path d="M103.587 97.5947H109.942" stroke="black" style="stroke:black;stroke-opacity:1;" stroke-width="3" stroke-linecap="round"/>
<path d="M103.587 103.767H109.942" stroke="black" style="stroke:black;stroke-opacity:1;" stroke-width="3" stroke-linecap="round"/>
<path d="M103.587 109.939H109.942" stroke="black" style="stroke:black;stroke-opacity:1;" stroke-width="3" stroke-linecap="round"/>
<path d="M103.587 116.111H109.942" stroke="black" style="stroke:black;stroke-opacity:1;" stroke-width="3" stroke-linecap="round"/>
<path d="M103.587 122.283H109.942" stroke="black" style="stroke:black;stroke-opacity:1;" stroke-width="3" stroke-linecap="round"/>
<path d="M103.587 128.457H109.942" stroke="black" style="stroke:black;stroke-opacity:1;" stroke-width="3" stroke-linecap="round"/>
<path d="M103.587 134.629H109.942" stroke="black" style="stroke:black;stroke-opacity:1;" stroke-width="3" stroke-linecap="round"/>
<path d="M115.025 85.0693C122.045 85.9165 135.939 91.4594 135.358 106.854C134.776 122.248 121.561 127.065 115.025 127.549" stroke="black" style="stroke:black;stroke-opacity:1;" stroke-width="3" stroke-linecap="round"/>
<path d="M115.025 56.9307V156.776" stroke="black" style="stroke:black;stroke-opacity:1;" stroke-width="3"/>
<path d="M115.025 62.377H104.496C102.491 62.377 100.865 64.0025 100.865 66.0078V70.7277" stroke="black" style="stroke:black;stroke-opacity:1;" stroke-width="3"/>
<path d="M115.387 70.3652H101.227C99.4214 70.3652 97.959 71.8283 97.959 73.633V138.986" stroke="black" style="stroke:black;stroke-opacity:1;" stroke-width="3"/>
<path d="M97.9594 74.7217H76.175C75.3728 74.7217 74.7227 75.3719 74.7227 76.174V84.1616C74.7227 84.9636 75.3728 85.6139 76.175 85.6139H97.9594" stroke="black" style="stroke:black;stroke-opacity:1;" stroke-width="3"/>
<path d="M78.3545 85.6133V139.712" stroke="black" style="stroke:black;stroke-opacity:1;" stroke-width="3"/>
<path d="M115.387 139.349H65.2832V150.241H115.387" stroke="black" style="stroke:black;stroke-opacity:1;" stroke-width="3"/>
</g>
</g>
<defs>
<clipPath id="clip0_1246_457">
<rect width="213" height="213" fill="white" style="fill:white;fill-opacity:1;" transform="translate(0.5)"/>
</clipPath>
</defs>
</svg>
