<svg width="37" height="37" viewBox="0 0 37 37" fill="none" xmlns="http://www.w3.org/2000/svg">
<g clip-path="url(#clip0_1246_932)">
<path d="M18.5 37C28.7173 37 37 28.7173 37 18.5C37 8.28273 28.7173 0 18.5 0C8.28273 0 0 8.28273 0 18.5C0 28.7173 8.28273 37 18.5 37Z" fill="white" style="fill:white;fill-opacity:1;"/>
<path d="M10.1404 14.7421V17.6492C10.1404 17.843 10.2975 18.0001 10.4913 18.0001H27.6492C27.8429 18.0001 28 17.843 28 17.6492V14.7417C28 14.6096 27.9258 14.4887 27.808 14.4289L19.2463 10.0806C19.1466 10.03 19.0288 10.0299 18.929 10.0803L10.3329 14.429C10.2148 14.4887 10.1404 14.6098 10.1404 14.7421Z" fill="black" style="fill:black;fill-opacity:1;"/>
<path d="M13.7193 18.8773H11.8246V25.1229H13.7193V18.8773Z" fill="black" style="fill:black;fill-opacity:1;"/>
<path d="M27.9649 26.0352H10V27.8598H27.9649V26.0352Z" fill="black" style="fill:black;fill-opacity:1;"/>
<path d="M18.1403 18.8773H16.2456V25.1229H18.1403V18.8773Z" fill="black" style="fill:black;fill-opacity:1;"/>
<path d="M21.7193 18.8773H19.8246V25.1229H21.7193V18.8773Z" fill="black" style="fill:black;fill-opacity:1;"/>
<path d="M26.1403 18.8773H24.2456V25.1229H26.1403V18.8773Z" fill="black" style="fill:black;fill-opacity:1;"/>
<path d="M19.0176 15.2983C19.5408 15.2983 19.965 14.8741 19.965 14.3509C19.965 13.8277 19.5408 13.4035 19.0176 13.4035C18.4944 13.4035 18.0702 13.8277 18.0702 14.3509C18.0702 14.8741 18.4944 15.2983 19.0176 15.2983Z" fill="white" style="fill:white;fill-opacity:1;"/>
</g>
<defs>
<clipPath id="clip0_1246_932">
<rect width="37" height="37" fill="white" style="fill:white;fill-opacity:1;"/>
</clipPath>
</defs>
</svg>
