<svg width="214" height="213" viewBox="0 0 214 213" fill="none" xmlns="http://www.w3.org/2000/svg">
<g clip-path="url(#clip0_1246_488)">
<path d="M107 211.037C164.734 211.037 211.537 164.234 211.537 106.5C211.537 48.7656 164.734 1.96289 107 1.96289C49.2656 1.96289 2.46289 48.7656 2.46289 106.5C2.46289 164.234 49.2656 211.037 107 211.037Z" stroke="black" style="stroke:black;stroke-opacity:1;" stroke-width="3"/>
<path d="M81.9961 86.418L79.935 146.536C79.9214 146.929 80.2365 147.255 80.6298 147.255H91.3594C91.7523 147.255 92.0671 146.929 92.0544 146.536L90.1077 86.418" stroke="black" style="stroke:black;stroke-opacity:1;" stroke-width="3" stroke-linecap="round"/>
<path d="M90.1092 86.5352L82.1938 96.5106C81.9157 96.8611 82.0362 97.3792 82.4405 97.571L89.8659 101.093C90.2802 101.289 90.3941 101.826 90.0954 102.175L81.3685 112.339C81.0903 112.663 81.1672 113.158 81.5305 113.383L90.443 118.891C90.8122 119.119 90.8844 119.626 90.5938 119.948L81.0981 130.475C80.792 130.815 80.8911 131.353 81.2983 131.561L90.7291 136.375C91.1595 136.594 91.2401 137.174 90.8857 137.503L80.4912 147.14" stroke="black" style="stroke:black;stroke-opacity:1;" stroke-width="3" stroke-linecap="round"/>
<path d="M70.1777 86.187H145.507C146.099 86.187 146.42 85.4945 146.038 85.0426L139.566 77.3946C139.434 77.2384 139.239 77.1484 139.035 77.1484H70.1777" stroke="black" style="stroke:black;stroke-opacity:1;" stroke-width="3" stroke-linecap="round"/>
<path d="M82.4609 77.0322L83.6923 58.5611C83.7167 58.1959 84.0201 57.9121 84.3861 57.9121H87.8844C87.976 57.9121 88.0667 57.9302 88.1513 57.9653L134.028 77.0322" stroke="black" style="stroke:black;stroke-opacity:1;" stroke-width="3" stroke-linecap="round"/>
<path d="M88.0234 57.9121L89.6458 76.6846" stroke="black" style="stroke:black;stroke-opacity:1;" stroke-width="3" stroke-linecap="round"/>
<path d="M66.2378 74.4482H62.0661C60.3194 74.4482 58.9033 75.8643 58.9033 77.6111V86.1862C58.9033 87.933 60.3194 89.349 62.0661 89.349H66.2378C67.9845 89.349 69.4006 87.933 69.4006 86.1862V77.6111C69.4006 75.8643 67.9845 74.4482 66.2378 74.4482Z" stroke="black" style="stroke:black;stroke-opacity:1;" stroke-width="3"/>
<path d="M77.711 156.75H72.6122C72.2283 156.75 71.917 156.439 71.917 156.055V152.695C71.917 150.135 73.9922 148.06 76.5522 148.06H96.8311C99.3912 148.06 101.466 150.135 101.466 152.695V156.055C101.466 156.439 101.155 156.75 100.771 156.75H84.766" stroke="black" style="stroke:black;stroke-opacity:1;" stroke-width="3" stroke-linecap="round"/>
<path d="M101.118 86.1875V94.8784C101.118 97.0543 102.882 98.8186 105.058 98.8186H114.791C116.968 98.8186 118.731 97.0543 118.731 94.8784V86.5351" stroke="black" style="stroke:black;stroke-opacity:1;" stroke-width="3" stroke-linecap="round"/>
<path d="M135.648 86.0713V115.048" stroke="black" style="stroke:black;stroke-opacity:1;" stroke-width="3" stroke-linecap="round"/>
<path d="M124.988 115.736L134.787 104.396C135.06 104.08 135.549 104.074 135.83 104.384L146.078 115.736" stroke="black" style="stroke:black;stroke-opacity:1;" stroke-width="3" stroke-linecap="round"/>
<path d="M117.34 121.823V116.895C117.34 116.255 117.859 115.736 118.499 115.736H153.262C153.902 115.736 154.421 116.255 154.421 116.895V121.823" stroke="black" style="stroke:black;stroke-opacity:1;" stroke-width="3" stroke-linecap="round"/>
<path d="M119.713 129.062H112.821C112.181 129.062 111.662 128.542 111.662 127.902V123.499C111.662 122.859 112.181 122.341 112.821 122.341H156.391C157.031 122.341 157.55 122.859 157.55 123.499V127.902C157.55 128.542 157.031 129.062 156.391 129.062H125.877" stroke="black" style="stroke:black;stroke-opacity:1;" stroke-width="3" stroke-linecap="round"/>
</g>
<defs>
<clipPath id="clip0_1246_488">
<rect width="213" height="213" fill="white" style="fill:white;fill-opacity:1;" transform="translate(0.5)"/>
</clipPath>
</defs>
</svg>
