<svg width="214" height="212" viewBox="0 0 214 212" fill="none" xmlns="http://www.w3.org/2000/svg">
<g clip-path="url(#clip0_1246_446)">
<path d="M107 210.537C164.734 210.537 211.537 163.734 211.537 106C211.537 48.2656 164.734 1.46289 107 1.46289C49.2656 1.46289 2.46289 48.2656 2.46289 106C2.46289 163.734 49.2656 210.537 107 210.537Z" stroke="black" style="stroke:black;stroke-opacity:1;" stroke-width="3"/>
<path d="M113.233 69.6338L90.2646 86.8603" stroke="black" style="stroke:black;stroke-opacity:1;" stroke-width="3"/>
<path d="M113.233 88.7725L90.2646 102.171" stroke="black" style="stroke:black;stroke-opacity:1;" stroke-width="3"/>
<path d="M113.233 104.085L88.3506 119.397" stroke="black" style="stroke:black;stroke-opacity:1;" stroke-width="3"/>
<path d="M113.233 123.228L88.3506 138.54" stroke="black" style="stroke:black;stroke-opacity:1;" stroke-width="3"/>
<path d="M113.233 140.454L86.4355 157.681" stroke="black" style="stroke:black;stroke-opacity:1;" stroke-width="3"/>
<path d="M113.232 48.5781V163.421" stroke="black" style="stroke:black;stroke-opacity:1;" stroke-width="3"/>
<path d="M90.2637 69.6337L86.4355 161.508V163.422H138.115L136.201 69.6337L113.233 50.4932L90.2637 69.6337Z" stroke="black" style="stroke:black;stroke-opacity:1;" stroke-width="3"/>
<path d="M136.201 83.0332L145.771 92.6035V163.424H136.201" stroke="black" style="stroke:black;stroke-opacity:1;" stroke-width="3"/>
<path d="M88.3505 104.085L76.8662 111.741L69.21 163.421H88.3505" stroke="black" style="stroke:black;stroke-opacity:1;" stroke-width="3"/>
</g>
<defs>
<clipPath id="clip0_1246_446">
<rect width="213" height="212.018" fill="white" style="fill:white;fill-opacity:1;" transform="translate(0.5 -0.00878906)"/>
</clipPath>
</defs>
</svg>
