<svg width="37" height="37" viewBox="0 0 37 37" fill="none" xmlns="http://www.w3.org/2000/svg">
<g clip-path="url(#clip0_1246_1074)">
<path d="M18.5 37C28.7173 37 37 28.7173 37 18.5C37 8.28273 28.7173 0 18.5 0C8.28273 0 0 8.28273 0 18.5C0 28.7173 8.28273 37 18.5 37Z" fill="white" style="fill:white;fill-opacity:1;"/>
<path d="M11.8008 10.9012L10.7325 23.6282C11.404 24.2285 13.8212 25.4779 18.1185 25.6731C22.4158 25.8685 25.0976 24.3913 25.9013 23.6282C25.6266 20.0879 25.0406 12.586 24.8941 10.9012C24.7476 9.21641 23.3681 8.95802 22.6966 9.03942H15.2801C12.3501 8.74642 11.7397 10.1585 11.8008 10.9012Z" fill="black" stroke="white" style="fill:black;fill-opacity:1;stroke:white;stroke-opacity:1;" stroke-width="0.627852"/>
<path d="M20.643 11.5118H16.0213C14.6343 11.5118 13.5099 12.6362 13.5099 14.0232V16.1422C13.5099 17.5293 14.6343 18.6536 16.0213 18.6536H20.643C22.03 18.6536 23.1544 17.5293 23.1544 16.1422V14.0232C23.1544 12.6362 22.03 11.5118 20.643 11.5118Z" fill="white" style="fill:white;fill-opacity:1;"/>
<path d="M18.4541 11.5727C19.1621 11.5727 19.736 10.9988 19.736 10.2908C19.736 9.58288 19.1621 9.00897 18.4541 9.00897C17.7462 9.00897 17.1722 9.58288 17.1722 10.2908C17.1722 10.9988 17.7462 11.5727 18.4541 11.5727Z" fill="white" style="fill:white;fill-opacity:1;"/>
<path d="M14.0594 22.7433C14.6325 22.7433 15.0971 22.2787 15.0971 21.7056C15.0971 21.1325 14.6325 20.6679 14.0594 20.6679C13.4863 20.6679 13.0217 21.1325 13.0217 21.7056C13.0217 22.2787 13.4863 22.7433 14.0594 22.7433Z" fill="white" style="fill:white;fill-opacity:1;"/>
<path d="M22.7268 22.7433C23.2999 22.7433 23.7645 22.2787 23.7645 21.7056C23.7645 21.1325 23.2999 20.6679 22.7268 20.6679C22.1537 20.6679 21.6891 21.1325 21.6891 21.7056C21.6891 22.2787 22.1537 22.7433 22.7268 22.7433Z" fill="white" style="fill:white;fill-opacity:1;"/>
<path d="M15.9821 21.6445H20.7128" stroke="white" style="stroke:white;stroke-opacity:1;" stroke-width="0.627852" stroke-linecap="round"/>
<path d="M10 29L13.0215 24.7882" stroke="black" style="stroke:black;stroke-opacity:1;" stroke-width="0.627852"/>
<path d="M23.7345 24.8491L26.8477 28.9693" stroke="black" style="stroke:black;stroke-opacity:1;" stroke-width="0.627852"/>
<path d="M10.7933 27.8706H25.901" stroke="black" style="stroke:black;stroke-opacity:1;" stroke-width="0.627852"/>
<path d="M11.9532 26.1918H24.7108" stroke="black" style="stroke:black;stroke-opacity:1;" stroke-width="0.627852"/>
</g>
<defs>
<clipPath id="clip0_1246_1074">
<rect width="37" height="37" fill="white" style="fill:white;fill-opacity:1;"/>
</clipPath>
</defs>
</svg>
