<svg width="214" height="213" viewBox="0 0 214 213" fill="none" xmlns="http://www.w3.org/2000/svg">
<g clip-path="url(#clip0_1246_540)">
<path d="M107 211.037C164.734 211.037 211.537 164.234 211.537 106.5C211.537 48.7656 164.734 1.96289 107 1.96289C49.2656 1.96289 2.46289 48.7656 2.46289 106.5C2.46289 164.234 49.2656 211.037 107 211.037Z" stroke="black" style="stroke:black;stroke-opacity:1;" stroke-width="3"/>
<path d="M107.491 88.3408V95.2118" stroke="black" style="stroke:black;stroke-opacity:1;" stroke-width="3" stroke-linecap="round"/>
<path d="M99.6383 66.7465H56.4493C55.9072 66.7465 55.4678 66.307 55.4678 65.7649V56.9308C55.4678 56.3887 55.9072 55.9492 56.4493 55.9492H157.551C158.093 55.9492 158.532 56.3887 158.532 56.9308V65.7649C158.532 66.307 158.093 66.7465 157.551 66.7465H115.343" stroke="black" style="stroke:black;stroke-opacity:1;" stroke-width="3" stroke-linecap="round"/>
<path d="M80.0068 67.2373V74.5991C80.0068 75.1412 80.4463 75.5806 80.9884 75.5806H132.521C133.062 75.5806 133.502 75.1412 133.502 74.5991V67.2373" stroke="black" style="stroke:black;stroke-opacity:1;" stroke-width="3" stroke-linecap="round"/>
<path d="M82.9519 76.0713C81.8067 84.9054 82.9519 104.34 96.6939 111.408" stroke="black" style="stroke:black;stroke-opacity:1;" stroke-width="3" stroke-linecap="round"/>
<path d="M131.048 76.0713C133.176 84.5782 133.601 103.457 118.288 110.917" stroke="black" style="stroke:black;stroke-opacity:1;" stroke-width="3" stroke-linecap="round"/>
<path d="M118.288 117.788V102.083C118.288 98.2881 115.212 95.2119 111.417 95.2119H103.564C99.7696 95.2119 96.6934 98.2881 96.6934 102.083V117.788" stroke="black" style="stroke:black;stroke-opacity:1;" stroke-width="3"/>
<path d="M87.8594 125.641C87.8594 121.304 91.3751 117.788 95.7119 117.788H119.27C123.606 117.788 127.122 121.304 127.122 125.641V130.548C127.122 131.633 126.244 132.512 125.159 132.512H89.8225C88.7383 132.512 87.8594 131.633 87.8594 130.548V125.641Z" stroke="black" style="stroke:black;stroke-opacity:1;" stroke-width="3"/>
<path d="M97.1839 103.065C93.6602 103.065 90.8037 100.209 90.8037 96.6847V75.5811H124.177V97.1755C124.177 100.428 121.54 103.065 118.288 103.065" stroke="black" style="stroke:black;stroke-opacity:1;" stroke-width="3"/>
<path d="M101.602 75.5811V82.452C101.602 85.7046 104.238 88.3414 107.491 88.3414C110.744 88.3414 113.38 85.7046 113.38 82.452V75.5811" stroke="black" style="stroke:black;stroke-opacity:1;" stroke-width="3"/>
<path d="M85.8967 140.364C86.9809 140.364 87.8599 139.485 87.8599 138.401C87.8599 137.316 86.9809 136.438 85.8967 136.438C84.8125 136.438 83.9336 137.316 83.9336 138.401C83.9336 139.485 84.8125 140.364 85.8967 140.364Z" fill="black" style="fill:black;fill-opacity:1;"/>
<path d="M95.0951 140.559C95.8388 141.348 97.0812 141.385 97.8702 140.641C98.6591 139.897 98.6958 138.655 97.9521 137.866C97.2084 137.077 95.9659 137.04 95.177 137.784C94.388 138.528 94.3514 139.77 95.0951 140.559Z" fill="black" style="fill:black;fill-opacity:1;"/>
<path d="M105.892 140.559C106.636 141.348 107.878 141.385 108.667 140.641C109.456 139.897 109.493 138.655 108.749 137.866C108.005 137.077 106.763 137.04 105.974 137.784C105.185 138.528 105.148 139.77 105.892 140.559Z" fill="black" style="fill:black;fill-opacity:1;"/>
<path d="M116.69 139.578C117.434 140.367 118.676 140.403 119.465 139.66C120.254 138.916 120.29 137.673 119.547 136.885C118.803 136.096 117.561 136.059 116.772 136.803C115.983 137.546 115.946 138.789 116.69 139.578Z" fill="black" style="fill:black;fill-opacity:1;"/>
<path d="M106.434 67.5582C106.935 68.0894 107.771 68.1141 108.303 67.6133C108.834 67.1126 108.859 66.2761 108.358 65.745C107.857 65.2138 107.021 65.1891 106.489 65.6898C105.958 66.1905 105.934 67.027 106.434 67.5582Z" fill="black" style="fill:black;fill-opacity:1;"/>
<path d="M127.487 140.559C128.23 141.348 129.473 141.385 130.262 140.641C131.051 139.897 131.087 138.655 130.344 137.866C129.6 137.077 128.358 137.04 127.569 137.784C126.78 138.528 126.743 139.77 127.487 140.559Z" fill="black" style="fill:black;fill-opacity:1;"/>
<path d="M80.0071 148.216C81.0913 148.216 81.9702 147.337 81.9702 146.253C81.9702 145.169 81.0913 144.29 80.0071 144.29C78.9229 144.29 78.0439 145.169 78.0439 146.253C78.0439 147.337 78.9229 148.216 80.0071 148.216Z" fill="black" style="fill:black;fill-opacity:1;"/>
<path d="M92.1498 148.412C92.8935 149.201 94.1359 149.237 94.9249 148.494C95.7138 147.75 95.7505 146.507 95.0068 145.719C94.263 144.93 93.0206 144.893 92.2317 145.637C91.4427 146.38 91.4061 147.623 92.1498 148.412Z" fill="black" style="fill:black;fill-opacity:1;"/>
<path d="M105.892 148.412C106.636 149.201 107.878 149.237 108.667 148.494C109.456 147.75 109.493 146.507 108.749 145.719C108.005 144.93 106.763 144.893 105.974 145.637C105.185 146.38 105.148 147.623 105.892 148.412Z" fill="black" style="fill:black;fill-opacity:1;"/>
<path d="M120.616 148.412C121.359 149.201 122.602 149.237 123.391 148.494C124.18 147.75 124.216 146.507 123.473 145.719C122.729 144.93 121.486 144.893 120.697 145.637C119.909 146.38 119.872 147.623 120.616 148.412Z" fill="black" style="fill:black;fill-opacity:1;"/>
<path d="M134.358 148.412C135.101 149.201 136.344 149.237 137.133 148.494C137.922 147.75 137.958 146.507 137.215 145.719C136.471 144.93 135.229 144.893 134.44 145.637C133.651 146.38 133.614 147.623 134.358 148.412Z" fill="black" style="fill:black;fill-opacity:1;"/>
<path d="M73.136 157.05C74.2202 157.05 75.0991 156.171 75.0991 155.087C75.0991 154.003 74.2202 153.124 73.136 153.124C72.0518 153.124 71.1729 154.003 71.1729 155.087C71.1729 156.171 72.0518 157.05 73.136 157.05Z" fill="black" style="fill:black;fill-opacity:1;"/>
<path d="M88.224 156.264C88.9677 157.053 90.2101 157.09 90.9991 156.346C91.788 155.602 91.8247 154.36 91.081 153.571C90.3373 152.782 89.0948 152.745 88.3059 153.489C87.517 154.233 87.4803 155.475 88.224 156.264Z" fill="black" style="fill:black;fill-opacity:1;"/>
<path d="M105.892 156.264C106.636 157.053 107.878 157.09 108.667 156.346C109.456 155.602 109.493 154.36 108.749 153.571C108.005 152.782 106.763 152.745 105.974 153.489C105.185 154.233 105.148 155.475 105.892 156.264Z" fill="black" style="fill:black;fill-opacity:1;"/>
<path d="M123.56 156.264C124.304 157.053 125.546 157.09 126.335 156.346C127.124 155.602 127.161 154.36 126.417 153.571C125.673 152.782 124.431 152.745 123.642 153.489C122.853 154.233 122.816 155.475 123.56 156.264Z" fill="black" style="fill:black;fill-opacity:1;"/>
<path d="M140.247 156.264C140.991 157.053 142.234 157.09 143.023 156.346C143.811 155.602 143.848 154.36 143.104 153.571C142.361 152.782 141.118 152.745 140.329 153.489C139.54 154.233 139.504 155.475 140.247 156.264Z" fill="black" style="fill:black;fill-opacity:1;"/>
</g>
<defs>
<clipPath id="clip0_1246_540">
<rect width="213" height="213" fill="white" style="fill:white;fill-opacity:1;" transform="translate(0.5)"/>
</clipPath>
</defs>
</svg>
