<svg width="37" height="37" viewBox="0 0 37 37" fill="none" xmlns="http://www.w3.org/2000/svg">
<g clip-path="url(#clip0_1246_1110)">
<path d="M18.5 37C28.7173 37 37 28.7173 37 18.5C37 8.28273 28.7173 0 18.5 0C8.28273 0 0 8.28273 0 18.5C0 28.7173 8.28273 37 18.5 37Z" fill="white" style="fill:white;fill-opacity:1;"/>
<path d="M18.5 20C17.3949 20 16.3351 19.561 15.5537 18.7797C14.7723 17.9982 14.3333 16.9384 14.3333 15.8333H16C16 16.4963 16.2634 17.1322 16.7322 17.6011C17.2011 18.0699 17.837 18.3333 18.5 18.3333C19.163 18.3333 19.7989 18.0699 20.2678 17.6011C20.7366 17.1322 21 16.4963 21 15.8333H22.6667C22.6667 16.9384 22.2277 17.9982 21.4463 18.7797C20.6649 19.561 19.6051 20 18.5 20ZM18.5 11.6667C19.163 11.6667 19.7989 11.9301 20.2678 12.3989C20.7366 12.8678 21 13.5037 21 14.1667H16C16 13.5037 16.2634 12.8678 16.7322 12.3989C17.2011 11.9301 17.837 11.6667 18.5 11.6667ZM24.3333 14.1667H22.6667C22.6667 13.6194 22.5589 13.0777 22.3494 12.5721C22.1401 12.0667 21.8332 11.6073 21.4463 11.2203C21.0593 10.8334 20.6 10.5266 20.0946 10.3172C19.589 10.1078 19.0472 10 18.5 10C17.3949 10 16.3351 10.439 15.5537 11.2203C14.7723 12.0018 14.3333 13.0616 14.3333 14.1667H12.6667C11.7417 14.1667 11 14.9083 11 15.8333V25.8333C11 26.2753 11.1756 26.6993 11.4881 27.0119C11.8007 27.3244 12.2247 27.5 12.6667 27.5H24.3333C24.7753 27.5 25.1993 27.3244 25.5119 27.0119C25.8244 26.6993 26 26.2753 26 25.8333V15.8333C26 15.3913 25.8244 14.9673 25.5119 14.6548C25.1993 14.3422 24.7753 14.1667 24.3333 14.1667Z" fill="black" style="fill:black;fill-opacity:1;"/>
</g>
<defs>
<clipPath id="clip0_1246_1110">
<rect width="37" height="37" fill="white" style="fill:white;fill-opacity:1;"/>
</clipPath>
</defs>
</svg>
