<svg width="112" height="112" viewBox="0 0 112 112" fill="none" xmlns="http://www.w3.org/2000/svg">
<path fill-rule="evenodd" clip-rule="evenodd" d="M36.9067 18C35.3014 18 34 19.3014 34 20.9067V91.8301C34 93.4355 35.3014 94.7368 36.9067 94.7368H75.2751C76.8804 94.7368 78.1818 93.4355 78.1818 91.8301V20.9067C78.1818 19.3014 76.8804 18 75.2751 18H36.9067ZM39.8149 26.7202C38.2096 26.7202 36.9082 28.0216 36.9082 29.6269V76.1341C36.9082 77.7394 38.2096 79.0408 39.8149 79.0408H72.3699C73.9753 79.0408 75.2766 77.7394 75.2766 76.1341V29.6269C75.2766 28.0216 73.9752 26.7202 72.3699 26.7202H39.8149ZM60.7416 85.7258C60.7416 88.1338 58.7895 90.0858 56.3815 90.0858C53.9735 90.0858 52.0215 88.1338 52.0215 85.7258C52.0215 83.3178 53.9735 81.3657 56.3815 81.3657C58.7895 81.3657 60.7416 83.3178 60.7416 85.7258ZM48.2424 21.4883C47.4397 21.4883 46.7891 22.139 46.7891 22.9416C46.7891 23.7443 47.4398 24.395 48.2424 24.395H63.9386C64.7412 24.395 65.3919 23.7443 65.3919 22.9416C65.3919 22.139 64.7412 21.4883 63.9386 21.4883H48.2424Z" fill="white" style="fill:white;fill-opacity:1;"/>
</svg>
