<svg width="25" height="25" viewBox="0 0 25 25" fill="none" xmlns="http://www.w3.org/2000/svg">
<path fill-rule="evenodd" clip-rule="evenodd" d="M12.5 25C19.4036 25 25 19.4036 25 12.5C25 5.59644 19.4036 0 12.5 0C5.59644 0 0 5.59644 0 12.5C0 19.4036 5.59644 25 12.5 25ZM12.6513 21.1382L12.9474 18.8356C10.2632 19.0198 8.38597 17.443 7.7829 16.6316C5.07237 13.1842 6.85088 9.6908 8.07896 8.37501L9.78949 10.0526L10.8421 4L4.75658 5.08553L6.40132 6.73027C4.48026 8.67764 4 11.0943 4 12.0592C4 19.8979 9.89914 21.2917 12.6513 21.1382ZM12.8488 4.35877L12.5528 6.6614C15.237 6.47719 17.1142 8.05395 17.7173 8.86535C20.4278 12.3127 18.6493 15.8062 17.4212 17.122L15.7107 15.4443L14.658 21.497L20.7436 20.4114L19.0988 18.7667C21.0199 16.8193 21.5002 14.4246 21.5002 13.4377C21.5002 5.77324 15.601 4.20526 12.8488 4.35877Z" fill="white"/>
</svg>
