<svg width="25" height="25" viewBox="0 0 25 25" fill="none" xmlns="http://www.w3.org/2000/svg">
<path fill-rule="evenodd" clip-rule="evenodd" d="M12.5 25C19.4036 25 25 19.4036 25 12.5C25 5.59644 19.4036 0 12.5 0C5.59644 0 0 5.59644 0 12.5C0 19.4036 5.59644 25 12.5 25ZM12.6514 21.1383L12.9474 18.8356C10.2632 19.0198 8.38599 17.4431 7.78296 16.6317C5.07239 13.1843 6.85095 9.69092 8.07898 8.37512L9.78955 10.0527L10.8422 4L4.75659 5.08557L6.40137 6.73035C4.48035 8.67773 4 11.0944 4 12.0593C4 19.8979 9.89917 21.2917 12.6514 21.1383ZM12.8489 4.35889L12.5529 6.6615C15.2371 6.47729 17.1143 8.05396 17.7173 8.86536C20.4279 12.3127 18.6493 15.8063 17.4213 17.1221L15.7107 15.4443L14.6581 21.4971L20.7437 20.4115L19.0989 18.7667C21.0199 16.8193 21.5002 14.4247 21.5002 13.4377C21.5002 5.77332 15.6011 4.20532 12.8489 4.35889Z" fill="black"/>
</svg>
