<svg width="684" height="684" viewBox="0 0 684 684" fill="none" xmlns="http://www.w3.org/2000/svg">
<g clip-path="url(#clip0_31_6)">
<mask id="mask0_31_6" style="mask-type:luminance" maskUnits="userSpaceOnUse" x="0" y="0" width="684" height="684">
<path d="M683.167 0.5H0.5V683.167H683.167V0.5Z" fill="white"/>
</mask>
<g mask="url(#mask0_31_6)">
<path d="M25.8332 1.70011C16.6332 4.63344 8.49988 11.4335 3.69988 20.5001C1.29989 25.0335 1.16655 32.9001 0.766551 219.833C0.499885 410.1 0.499885 414.633 3.16655 424.9C9.16655 449.033 26.8999 468.233 49.5666 475.167C57.9666 477.833 62.3666 477.833 236.633 477.833H415.167L420.367 488.1C429.967 507.433 444.767 523.433 460.767 532.367L467.167 535.833V564.1V592.5H462.633C456.367 592.5 443.567 596.633 437.167 600.767C419.567 611.967 409.833 630.9 409.833 653.833C409.967 668.5 415.033 677.967 424.9 681.7C427.433 682.633 456.367 683.167 512.633 683.167C604.367 683.167 602.1 683.3 608.767 675.433C614.233 668.9 615.567 662.9 614.767 649.3C613.567 629.033 605.967 614.1 591.167 603.033C583.967 597.567 569.967 592.5 562.367 592.5H557.833V564.1V535.7L562.233 533.567C570.1 529.7 583.033 519.033 590.633 510.1C597.967 501.3 609.033 480.9 610.633 473.167C611.167 470.367 613.7 467.433 619.433 463.167C635.967 450.767 655.3 427.033 665.7 406.1C676.233 385.167 684.1 350.9 682.9 331.167C682.5 323.833 681.7 321.3 678.767 317.3C671.967 308.5 669.567 307.833 640.9 307.433L615.167 306.9V300.767C615.167 292.1 613.167 286.1 608.9 281.433C601.967 274.233 600.1 273.833 572.5 273.833H547.167V211.167C547.167 171.167 546.633 146.233 545.7 141.833C543.567 132.1 537.3 123.567 528.5 118.633L521.167 114.5L476.9 114.1L432.5 113.7V93.4335C432.367 80.5001 431.833 71.4335 430.633 68.3668C427.967 60.9001 422.5 54.6335 414.9 50.3668L407.833 46.5001L331.567 45.8335L255.3 45.1668L235.567 25.7001C224.767 15.0335 213.433 5.16677 210.5 3.70011C205.433 1.30011 201.3 1.16678 117.167 0.90011C68.7666 0.766776 27.6999 1.16678 25.8332 1.70011ZM219.567 42.9001C230.767 53.7001 242.233 63.7001 245.167 65.1668C250.233 67.7001 254.233 67.8335 326.767 68.5001L402.9 69.1668L406.367 72.3668C409.833 75.5668 409.833 75.9668 409.833 94.7668V113.833L274.9 114.1C145.967 114.5 139.567 114.633 135.167 117.033C126.633 121.567 122.5 125.433 118.5 132.633L114.5 139.833L113.833 281.167L113.167 422.5L109.433 430.1C94.2332 461.167 51.0332 463.833 31.8332 434.767C22.6332 420.9 23.1666 432.633 23.1666 221.433V30.9001L27.0332 27.0335L30.8999 23.1668H115.167H199.433L219.567 42.9001ZM517.167 138.367C520.767 139.833 521.967 141.433 523.167 145.567C524.1 149.033 524.367 171.7 524.233 211.967L523.833 273.167L474.5 273.833C440.5 274.233 424.367 275.033 422.5 276.1C414.1 280.9 409.833 289.3 409.833 300.767V306.9L384.233 307.433C355.433 307.833 353.033 308.5 346.233 317.3C341.7 323.3 340.767 333.3 343.033 350.633C348.1 388.367 363.3 420.767 389.033 448.1L395.567 455.167H258.1H120.5L125.833 446.9C128.767 442.367 132.367 434.9 133.833 430.1C136.367 421.833 136.5 417.433 136.5 285.167C136.5 187.033 136.9 147.7 137.967 144.5C140.9 136.1 130.1 136.633 330.233 136.5C485.033 136.5 513.3 136.767 517.167 138.367ZM592.233 377.433C591.833 451.433 591.567 459.167 589.3 465.833C581.967 488.233 567.567 505.567 548.367 514.767C534.367 521.567 526.9 523.3 512.5 523.3C476.5 523.3 447.567 501.7 435.7 465.833C433.433 459.167 433.167 451.7 432.767 377.433L432.367 296.5H512.5H592.633L592.233 377.433ZM409.833 383.3C409.833 444.1 411.033 440.1 397.833 423.567C378.767 399.833 368.1 373.433 365.033 342.233C364.633 337.033 364.633 332.1 365.033 331.3C365.7 330.367 373.433 329.833 387.967 329.833H409.833V383.3ZM660.233 334.633C660.9 341.3 656.767 365.033 653.167 376.1C646.367 396.1 635.3 415.167 621.3 430.5L615.3 437.167L615.167 383.433V329.833L637.567 330.1L659.833 330.5L660.233 334.633ZM512.5 546.233C517.967 546.233 525.3 545.833 528.9 545.3L535.167 544.367V568.367V592.5H512.5H489.833V568.367V544.367L496.233 545.3C499.7 545.833 507.033 546.233 512.5 546.233ZM569.033 616.767C572.367 617.833 577.167 621.033 581.433 625.167C589.167 632.767 592.5 641.167 592.5 653.433V660.5H512.5H432.5V653.433C432.5 641.167 435.833 632.767 443.7 625.167C447.433 621.433 452.633 617.7 455.167 616.9C462.1 614.767 561.7 614.633 569.033 616.767Z" fill="black"/>
<path d="M177.033 160.633C173.567 161.433 169.7 163.7 166.767 166.767C159.7 173.833 158.9 179.7 159.433 221.7L159.833 257.433L163.567 263.033C170.9 274.1 168.633 273.833 250.5 273.833C317.7 273.833 322.9 273.567 327.833 271.3C333.967 268.5 338.367 264.1 340.367 258.767C341.3 256.367 341.833 240.633 341.833 216.633C341.833 179.567 341.7 178.233 338.9 172.5C335.3 165.567 330.9 162.1 323.7 160.5C316.9 158.9 184.1 159.033 177.033 160.633ZM319.167 217.167V251.167H251.167H183.167V217.167V183.167H251.167H319.167V217.167Z" fill="black"/>
<path d="M176.367 298.233C170.233 302.9 169.7 309.967 175.033 315.3L178.9 319.167H245.167H311.433L315.3 315.3C320.633 309.967 320.1 302.9 313.967 298.233C310.9 295.833 179.433 295.833 176.367 298.233Z" fill="black"/>
<path d="M175.033 345.7C170.9 349.833 170.233 353.033 172.633 358.233C175.3 364.1 178.1 364.5 223.3 364.5H266.1L269.966 360.633C272.233 358.233 273.833 355.3 273.833 353.167C273.833 351.033 272.233 348.1 269.966 345.7L266.1 341.833H222.5H178.9L175.033 345.7Z" fill="black"/>
<path d="M459.7 322.233C456.767 324.767 455.967 326.767 455.433 332.9C454.367 346.367 457.967 352.5 466.9 352.5C475.3 352.5 477.833 348.633 477.833 335.967C477.833 326.9 477.433 325.3 474.5 322.5C470.367 318.233 464.5 318.233 459.7 322.233Z" fill="black"/>
<path d="M460.233 378.367C458.9 379.3 457.3 381.7 456.5 383.7C454.766 388.367 454.766 442.367 456.5 453.167C460.633 478.367 482.366 498.633 506.9 500.233C515.7 500.767 516.9 500.5 519.833 497.833C523.433 494.5 524.233 487.833 521.833 483.167C520.366 480.367 513.833 477.833 508.233 477.833C499.033 477.833 486.1 468.233 481.3 457.833C478.766 452.367 478.5 449.033 478.1 417.167C477.7 384.1 477.566 382.367 474.9 379.433C471.7 376.1 463.966 375.433 460.233 378.367Z" fill="black"/>
</g>
</g>
<defs>
<clipPath id="clip0_31_6">
<rect width="683" height="683" fill="white" transform="translate(0.5 0.5)"/>
</clipPath>
</defs>
</svg>
