<svg width="684" height="684" viewBox="0 0 684 684" fill="none" xmlns="http://www.w3.org/2000/svg">
<g clip-path="url(#clip0_31_17)">
<mask id="mask0_31_17" style="mask-type:luminance" maskUnits="userSpaceOnUse" x="0" y="0" width="684" height="684">
<path d="M683.167 0.5H0.5V683.167H683.167V0.5Z" fill="white"/>
</mask>
<g mask="url(#mask0_31_17)">
<path d="M383.833 2.63332C371.967 8.76666 369.833 14.3666 369.833 39.9666C369.833 58.3666 370.1 60.5 372.633 63.7C375.7 67.7 382.233 68.3666 386.633 65.3C388.9 63.5666 389.3 61.1666 389.833 42.2333L390.5 21.1666L397.967 21.3C413.433 21.5666 430.1 33.3 437.433 49.0333C441.167 57.1666 441.167 57.3 441.833 91.8333C442.5 129.033 442.633 129.567 449.967 135.7L454.1 139.167H484.633C501.433 139.167 515.167 139.433 515.167 139.833C515.167 140.233 513.967 144.367 512.367 148.9C510.233 155.3 509.7 158.9 510.367 165.167C511.3 174.1 516.1 185.033 521.033 189.833L524.367 192.9L520.367 197.967C513.3 206.9 510.5 214.767 510.633 225.833C510.633 233.833 511.3 237.3 514.233 243.3C516.233 247.3 519.3 251.967 521.033 253.7L524.233 256.767L519.833 262.5C509.3 276.367 507.433 292.5 514.9 307.433C518.9 315.433 523.7 321.033 529.433 324.233C531.3 325.3 531.033 326.5 527.3 334.1C523.833 341.033 522.9 344.633 522.9 351.433L522.767 359.967L512.633 355.7C493.7 347.567 482.233 345.3 459.167 345.167C438.233 345.167 432.367 345.967 415.433 351.433C410.9 352.9 406.367 353.833 405.433 353.433C402.5 352.233 394.633 337.433 392.233 328.633C390.233 320.633 389.967 309.433 389.967 210.1C389.833 102.367 389.833 100.5 387.167 97.8333C383.167 93.8333 376.1 94.2333 372.633 98.6333C370.1 101.967 369.833 103.967 369.833 124.633C369.833 147.167 369.833 147.167 366.9 147.167C360.233 147.3 351.7 152.9 337.167 167.167C320.9 183.033 319.7 183.567 310.367 179.7C299.433 175.167 299.167 174.5 299.167 152.5C299.167 124.1 295.567 114.9 281.433 107.833C274.767 104.5 274.233 104.5 243.3 104.5C208.233 104.5 205.3 105.167 196.9 113.967C189.567 121.7 188.5 126.1 188.5 148.5C188.5 172.5 187.7 174.767 177.967 179.033C166.633 183.833 165.967 183.567 148.1 166.1C130.767 149.433 126.9 147.167 115.033 147.167C104.5 147.3 98.6333 151.3 76.9 172.9C63.3 186.633 55.8333 195.167 53.9667 199.167C50.6333 206.367 50.3667 217.3 53.1667 224.1C54.3667 226.9 62.1 236.1 70.5 244.633C87.7 262.233 88.1 263.033 82.5 274.9C80.3667 279.567 78.1 282.233 75.8333 283.167C73.8333 283.967 63.3 284.5 52.3667 284.5C30.1 284.5 25.7 285.567 17.9667 292.9C9.16667 301.3 8.5 304.233 8.5 339.3C8.5 370.367 8.5 370.633 11.9667 377.567C18.9 391.7 27.9667 395.167 56.5 395.167C78.5 395.167 79.1667 395.433 83.7 406.367C87.5667 415.7 87.0333 416.9 71.1667 433.167C55.4333 449.3 51.3 456.1 51.1667 465.833C51.1667 478.633 52.6333 481.033 75.7 504.233C87.4333 516.233 99.3 527.167 101.833 528.5C109.433 532.367 116.767 533.033 125.167 530.5C131.833 528.633 134.5 526.5 148.633 512.9C166.633 495.433 168.5 494.633 179.433 500.767C187.7 505.3 188.5 507.567 188.5 530.5C188.5 548.767 188.767 551.033 191.7 557.433C195.7 565.833 203.3 571.7 212.9 573.833C217.433 574.9 229.833 575.3 247.833 574.9C278.233 574.5 280.367 573.967 288.9 565.967C297.033 558.5 298.233 553.967 299.033 529.033C299.567 512.9 300.367 505.567 301.567 504.1C305.167 499.833 321.833 495.3 321.833 498.5C321.833 498.767 322.633 503.3 323.7 508.767C327.3 527.567 336.767 549.167 346.767 561.567C352.5 568.5 358.633 569.3 363.033 563.7C367.033 558.633 366.5 555.833 360.5 546.633C338.367 512.5 334.9 469.433 351.7 433.3C372.1 389.033 415.7 362.5 463.833 364.9C481.167 365.833 491.967 368.367 506.633 375.167C549.833 395.167 575.567 435.033 575.567 481.833C575.567 538.5 536.5 585.967 480.633 597.3C472.233 598.9 465.3 599.3 453.967 598.9C434.633 597.967 420.5 594.367 403.567 585.7C396.633 582.1 390.233 579.167 389.3 579.167C388.367 579.167 385.967 580.367 383.967 581.967C379.567 585.433 379.167 592.5 383.167 596.5C390.1 603.433 416.5 613.967 435.033 617.167C503.967 629.3 570.767 587.3 590.5 519.567C601.833 480.633 594.367 436.1 571.033 403.167L565.833 395.833L592.767 395.167C619.033 394.5 620.1 394.367 627.433 390.767C637.033 386.1 646.233 375.967 649.167 367.033C652.367 357.7 652.1 344.9 648.633 337.033C647.033 333.7 645.833 330.367 645.833 329.967C645.833 329.433 647.833 328.367 650.367 327.433C657.033 325.033 666.767 315.7 670.9 307.967C673.967 302.1 674.5 299.567 674.5 289.167C674.5 278.767 673.967 276.233 670.9 270.5C669.033 266.767 665.833 262.367 663.967 260.633L660.5 257.3L664.367 253.3C672.1 245.167 674.5 238.367 674.5 225.167C674.5 212.233 672.633 206.9 665.167 197.967L661.567 193.833L666.367 187.3C672.633 178.9 675.167 171.433 675.167 161.7C675.167 145.3 666.633 131.7 651.433 124.233L642.5 119.833L552.233 119.433L461.833 119.033V90.1C461.833 49.0333 458.367 37.4333 441.567 20.6333C425.833 4.89999 396.9 -4.16668 383.833 2.63332ZM275.3 127.967C278.367 131.167 278.5 132.367 279.167 154.233C279.833 176.1 279.967 177.433 283.433 183.167C287.7 190.5 291.967 193.7 303.433 198.233C321.567 205.567 328.233 203.3 349.433 182.9C358.5 174.233 366.633 167.167 367.833 167.167C369.567 167.167 369.833 175.967 369.833 243.433C369.833 305.433 370.233 321.567 371.833 329.033C373.833 338.633 379.7 352.367 384.767 359.433L387.7 363.567L384.5 365.7C350.1 388.233 326.1 426.767 322.1 465.833L321.167 475.7L312.5 477.833C296.633 481.967 288.767 486.767 282.9 496.233C280.1 500.767 279.833 503.033 279.167 524.767C278.233 556.633 280.767 554.367 245.567 554.9C217.167 555.3 212.633 554.633 210.1 549.433C209.3 547.833 208.367 536.9 208.233 525.167C207.833 506.5 207.433 503.167 204.9 498.5C195.833 481.567 170.9 472.5 155.167 480.5C151.967 482.1 143.033 489.7 135.3 497.167C127.567 504.633 119.833 511.3 118.233 511.7C113.433 513.167 108.9 509.7 89.5667 490.233C65.4333 465.7 65.4333 467.7 86.9 445.433C104.1 427.567 106.9 422.5 105.567 410.633C104.633 403.167 98.1 389.033 93.0333 383.967C85.5667 376.5 80.6333 375.167 58.1 375.167C37.5667 375.167 33.7 374.367 30.2333 369.967C29.0333 368.5 28.6333 359.7 28.5 339.7C28.5 302.5 26.2333 305.433 56.7667 304.367C82.7667 303.567 87.3 302.233 95.0333 292.9C101.167 285.433 106.367 269.967 105.433 261.833C104.233 252.1 101.567 247.967 85.7 231.7C65.7 211.167 65.4333 213.433 91.5667 187.433C117.7 161.433 115.3 161.7 136.367 182.233C154.233 199.7 159.7 202.767 171.833 201.433C182.233 200.367 195.967 193.3 201.3 186.233C206.9 178.767 208.5 170.767 208.5 149.033C208.5 131.7 208.633 130.9 211.833 127.833C215.033 124.5 215.033 124.5 243.567 124.5H272.1L275.3 127.967ZM645.433 143.433C658.9 152.367 658.5 170.767 644.5 180.233L639.967 183.3L591.7 182.9C536.633 182.5 538.767 182.9 532.633 170.767C526.233 157.833 533.033 144.1 547.833 140.367C550.1 139.833 571.7 139.433 595.967 139.567L640.1 139.833L645.433 143.433ZM644.1 206.1C650.633 209.7 654.233 215.967 654.9 224.367C655.433 232.633 652.633 238.367 645.433 243.7C641.833 246.367 639.967 246.5 594.5 246.9C549.433 247.3 547.033 247.167 541.967 244.633C532.9 239.967 527.967 228.233 531.033 218.9C532.9 213.3 539.967 206.1 545.3 204.5C547.433 203.833 569.567 203.433 594.5 203.567C634.767 203.833 640.367 204.1 644.1 206.1ZM643.167 270.1C651.833 274.633 654.5 279.033 654.5 289.167C654.5 299.3 651.833 303.7 643.167 308.1C637.433 311.167 636.367 311.167 592.367 311.167C548.233 311.167 547.567 311.167 541.833 308.1C535.167 304.633 529.833 296.1 529.833 289.167C529.833 282.233 535.167 273.7 541.833 270.233C547.567 267.167 548.233 267.167 592.367 267.167C636.367 267.167 637.433 267.167 643.167 270.1ZM618.233 333.033C630.767 338.367 635.567 354.767 627.567 365.7C626.1 367.567 622.367 370.5 619.167 372.1C613.7 375.033 611.7 375.167 587.167 375.167C564.767 375.167 560.367 374.767 555.7 372.633C538.367 364.767 538.5 340.767 555.833 333.033C561.567 330.5 612.233 330.5 618.233 333.033Z" fill="black"/>
<path d="M217.967 237.833C212.633 239.033 202.367 243.033 195.3 246.5C184.367 251.967 180.633 254.767 169.7 265.7C158.367 277.033 156.1 280.233 149.967 292.633C141.7 309.567 139.967 318.633 144.367 323.033C147.833 326.5 153.967 326.633 157.567 323.433C159.033 322.233 161.3 317.833 162.5 313.833C166.633 300.5 172.633 290.9 183.833 279.833C200.9 262.767 218.9 255.167 242.767 255.167C258.633 255.167 266.767 256.9 279.833 263.167C308.367 276.9 326.1 303.433 328.1 335.033C330.5 375.833 301.3 414.1 261.167 422.5C223.3 430.367 185.167 412.1 167.833 377.833C165.433 373.033 162.767 366.633 161.967 363.567C160.367 357.833 155.167 352.5 151.167 352.5C149.833 352.5 147.3 353.7 145.3 355.3C140.9 358.767 140.767 364.1 145.033 375.7C154.367 401.433 173.567 422.233 199.3 434.367C215.167 441.967 224.1 443.7 244.5 443.7C261.3 443.7 263.433 443.433 275.167 439.3C291.3 433.833 303.567 426.5 315.3 415.433C342.9 389.567 354.367 349.967 345.167 313.567C341.967 301.033 332.367 282.367 323.833 272.233C310.233 255.833 289.967 243.167 269.167 237.833C255.567 234.367 232.1 234.367 217.967 237.833Z" fill="black"/>
<path d="M233.167 284.1C211.167 289.033 194.767 304.367 189.167 325.167C180.5 357.033 203.3 391.3 235.567 394.9C260.633 397.833 283.167 385.833 293.967 363.7C297.833 355.967 298.5 353.033 298.9 342.233C299.433 331.7 299.033 328.5 296.5 321.433C289.433 302.1 274.5 288.767 255.433 284.633C248.5 283.167 238.367 282.9 233.167 284.1ZM254.633 305.167C268.767 309.3 279.167 323.433 279.167 338.233C279.167 350.633 276.9 356.233 268.5 364.5C260.233 372.767 253.833 375.433 242.233 375.3C218.5 375.033 201.167 350.367 209.033 328.1C215.967 308.9 234.9 299.3 254.633 305.167Z" fill="black"/>
<path d="M635.167 423.433C631.833 427.033 631.833 428.233 635.433 442.767C638.1 453.033 638.5 457.967 638.5 481.833C638.5 505.967 638.1 510.633 635.3 521.833C617.967 592.367 565.7 643.7 495.033 659.433C475.567 663.7 442.1 663.7 422.233 659.433C387.033 651.833 358.233 636.367 332.1 611.3C317.967 597.567 313.833 595.833 308.233 601.567C303.833 605.833 304.633 611.433 310.233 617.833C338.633 649.167 380.5 672.1 423.567 680.1C440.5 683.3 476.633 683.167 493.833 680.1C509.7 677.167 534.233 669.033 548.1 662.1C579.167 646.367 609.7 618.767 628.767 589.033C639.7 572.1 651.033 543.833 655.833 521.833C658.767 508.233 659.967 470.367 657.967 455.167C655.7 438.9 651.7 424.233 648.9 422.233C645.3 419.433 638.233 420.1 635.167 423.433Z" fill="black"/>
<path d="M517.033 434.233C515.567 435.167 498.5 453.7 479.3 475.433C459.967 497.3 443.967 515.167 443.833 515.167C443.567 515.167 434.767 505.433 424.367 493.433C401.433 467.3 399.967 465.833 395.3 465.833C390.5 465.833 385.833 470.9 385.833 475.967C385.833 479.833 397.433 494.233 429.433 529.567C445.033 546.767 440.767 549.3 490.1 493.433C526.633 452.1 531.167 446.5 531.167 442.5C531.167 439.3 530.233 437.3 527.7 435.3C523.7 432.1 521.033 431.833 517.033 434.233Z" fill="black"/>
</g>
</g>
<defs>
<clipPath id="clip0_31_17">
<rect width="683" height="683" fill="white" transform="translate(0.5 0.5)"/>
</clipPath>
</defs>
</svg>
